solid OpenSCAD_Model
  facet normal -0.705162 -0.0741156 -0.705162
    outer loop
      vertex -13.6941 -2.91076 90
      vertex -13.7372 -2.5 90
      vertex -11.7616 -2.5 88.0243
    endloop
  endfacet
  facet normal 0 1 0
    outer loop
      vertex -11.7616 -2.5 91.9757
      vertex -11.7394 -2.5 91.9968
      vertex -13.455 -2.5 90.2822
    endloop
  endfacet
  facet normal 0 1 0
    outer loop
      vertex -13.455 -2.5 90.2822
      vertex -11.7394 -2.5 91.9968
      vertex -11.7361 -2.5 92
    endloop
  endfacet
  facet normal 0 1 0
    outer loop
      vertex -13.455 -2.5 90.2822
      vertex -11.7361 -2.5 92
      vertex -9.64472 -2.5 92
    endloop
  endfacet
  facet normal 0 1 0
    outer loop
      vertex -11.7361 -2.5 88
      vertex -9.64472 -2.5 92
      vertex -9.64472 -2.5 44
    endloop
  endfacet
  facet normal 0 1 0
    outer loop
      vertex -13.455 -2.5 90.2822
      vertex -9.64472 -2.5 92
      vertex -11.7361 -2.5 88
    endloop
  endfacet
  facet normal 0 1 0
    outer loop
      vertex -13.7372 -2.5 90
      vertex -13.455 -2.5 90.2822
      vertex -11.7616 -2.5 88.0243
    endloop
  endfacet
  facet normal 0 1 0
    outer loop
      vertex -13.455 -2.5 90.2822
      vertex -11.7361 -2.5 88
      vertex -11.7616 -2.5 88.0243
    endloop
  endfacet
  facet normal 0 1 0
    outer loop
      vertex -11.7361 -2.5 88
      vertex -9.64472 -2.5 44
      vertex -11.7361 -2.5 44
    endloop
  endfacet
  facet normal -0.705162 -0.0741156 0.705162
    outer loop
      vertex -13.455 -2.5 90.2822
      vertex -13.7372 -2.5 90
      vertex -13.6941 -2.91076 90
    endloop
  endfacet
  facet normal -0.705162 -0.0741156 0.705162
    outer loop
      vertex -13.455 -2.5 90.2822
      vertex -13.6941 -2.91076 90
      vertex -11.7616 -2.5 91.9757
    endloop
  endfacet
  facet normal -0.674343 -0.219107 0.705162
    outer loop
      vertex -11.7616 -2.5 91.9757
      vertex -13.6941 -2.91076 90
      vertex -12.7896 -5.69431 90
    endloop
  endfacet
  facet normal -0.674343 -0.219107 0.705162
    outer loop
      vertex -11.7394 -2.5 91.9968
      vertex -11.7616 -2.5 91.9757
      vertex -12.7896 -5.69431 90
    endloop
  endfacet
  facet normal -0.674343 -0.219107 -0.705162
    outer loop
      vertex -12.7896 -5.69431 90
      vertex -13.6941 -2.91076 90
      vertex -10.9625 -4.88084 88
    endloop
  endfacet
  facet normal -0.674343 -0.219107 -0.705162
    outer loop
      vertex -13.6941 -2.91076 90
      vertex -11.7616 -2.5 88.0243
      vertex -10.9625 -4.88084 88
    endloop
  endfacet
  facet normal -0.674343 -0.219107 -0.705162
    outer loop
      vertex -10.9625 -4.88084 88
      vertex -11.7616 -2.5 88.0243
      vertex -11.7361 -2.5 88
    endloop
  endfacet
  facet normal -0.951057 -0.309017 0
    outer loop
      vertex -11.7378 -2.49494 0
      vertex -10.9625 -4.88084 0
      vertex -11.7378 -2.49494 44
    endloop
  endfacet
  facet normal -0.951057 -0.309017 0
    outer loop
      vertex -11.7361 -2.5 44
      vertex -10.9625 -4.88084 0
      vertex -10.9625 -4.88084 88
    endloop
  endfacet
  facet normal -0.951057 -0.309017 0
    outer loop
      vertex -11.7378 -2.49494 44
      vertex -10.9625 -4.88084 0
      vertex -11.7361 -2.5 44
    endloop
  endfacet
  facet normal -0.951057 -0.309017 0
    outer loop
      vertex -11.7361 -2.5 44
      vertex -10.9625 -4.88084 88
      vertex -11.7361 -2.5 88
    endloop
  endfacet
  facet normal 0 0 1
    outer loop
      vertex -11.7378 -2.49494 44
      vertex -11.7361 -2.5 44
      vertex -9.64472 -2.5 44
    endloop
  endfacet
  facet normal 0 0 1
    outer loop
      vertex -10 0 44
      vertex -11.7378 -2.49494 44
      vertex -9.78148 -2.07912 44
    endloop
  endfacet
  facet normal 0 0 1
    outer loop
      vertex -9.78148 -2.07912 44
      vertex -11.7378 -2.49494 44
      vertex -9.64472 -2.5 44
    endloop
  endfacet
  facet normal 0 0 1
    outer loop
      vertex -9.78148 2.07912 44
      vertex -11.7378 -2.49494 44
      vertex -10 0 44
    endloop
  endfacet
  facet normal 0 0 1
    outer loop
      vertex -9.64472 2.5 44
      vertex -11.7378 -2.49494 44
      vertex -9.78148 2.07912 44
    endloop
  endfacet
  facet normal 0 0 1
    outer loop
      vertex -11.7361 2.5 44
      vertex -11.7378 -2.49494 44
      vertex -9.64472 2.5 44
    endloop
  endfacet
  facet normal 0 0 1
    outer loop
      vertex -11.7378 2.49494 44
      vertex -11.7378 -2.49494 44
      vertex -11.7361 2.5 44
    endloop
  endfacet
  facet normal 0 0 1
    outer loop
      vertex -12 0 44
      vertex -11.7378 -2.49494 44
      vertex -11.7378 2.49494 44
    endloop
  endfacet
  facet normal 0.951057 0.309017 0
    outer loop
      vertex -9.13546 -4.06737 92
      vertex -9.64472 -2.5 44
      vertex -9.64472 -2.5 92
    endloop
  endfacet
  facet normal 0.951057 0.309017 0
    outer loop
      vertex -9.13546 -4.06737 2
      vertex -9.64472 -2.5 44
      vertex -9.13546 -4.06737 92
    endloop
  endfacet
  facet normal 0.951057 0.309017 0
    outer loop
      vertex -9.78148 -2.07912 44
      vertex -9.64472 -2.5 44
      vertex -9.13546 -4.06737 2
    endloop
  endfacet
  facet normal 0.951057 0.309017 0
    outer loop
      vertex -9.78148 -2.07912 2
      vertex -9.78148 -2.07912 44
      vertex -9.13546 -4.06737 2
    endloop
  endfacet
  facet normal 0 0 1
    outer loop
      vertex -9.64472 -2.5 92
      vertex -11.7361 -2.5 92
      vertex -10.9625 -4.88084 92
    endloop
  endfacet
  facet normal 0 0 1
    outer loop
      vertex -8.02957 -8.91774 92
      vertex -9.64472 -2.5 92
      vertex -9.7082 -7.05342 92
    endloop
  endfacet
  facet normal 0 0 1
    outer loop
      vertex -9.7082 -7.05342 92
      vertex -9.64472 -2.5 92
      vertex -10.9625 -4.88084 92
    endloop
  endfacet
  facet normal 0 0 1
    outer loop
      vertex -9.13546 -4.06737 92
      vertex -9.64472 -2.5 92
      vertex -8.02957 -8.91774 92
    endloop
  endfacet
  facet normal 0 0 1
    outer loop
      vertex -6.69131 -7.43145 92
      vertex -8.09017 -5.87785 92
      vertex -6 -10.3923 92
    endloop
  endfacet
  facet normal 0 0 1
    outer loop
      vertex -5 -8.66025 92
      vertex -6.69131 -7.43145 92
      vertex -3.7082 -11.4127 92
    endloop
  endfacet
  facet normal 0 0 1
    outer loop
      vertex -3.09017 -9.51056 92
      vertex -5 -8.66025 92
      vertex -1.25434 -11.9343 92
    endloop
  endfacet
  facet normal 0 0 1
    outer loop
      vertex 1.04529 -9.94522 92
      vertex -1.04529 -9.94522 92
      vertex 1.25434 -11.9343 92
    endloop
  endfacet
  facet normal 0 0 1
    outer loop
      vertex 3.09017 -9.51056 92
      vertex 1.04529 -9.94522 92
      vertex 3.7082 -11.4127 92
    endloop
  endfacet
  facet normal 0 0 1
    outer loop
      vertex 5 -8.66025 92
      vertex 3.09017 -9.51056 92
      vertex 6 -10.3923 92
    endloop
  endfacet
  facet normal 0 0 1
    outer loop
      vertex 6.69131 -7.43145 92
      vertex 5 -8.66025 92
      vertex 8.02957 -8.91774 92
    endloop
  endfacet
  facet normal 0 0 1
    outer loop
      vertex 8.09017 -5.87785 92
      vertex 6.69131 -7.43145 92
      vertex 9.7082 -7.05342 92
    endloop
  endfacet
  facet normal 0 0 1
    outer loop
      vertex 11.7361 -2.5 92
      vertex 9.64472 -2.5 92
      vertex 10.9625 -4.88084 92
    endloop
  endfacet
  facet normal 0 0 1
    outer loop
      vertex 9.64472 -2.5 92
      vertex 9.13546 -4.06737 92
      vertex 10.9625 -4.88084 92
    endloop
  endfacet
  facet normal 0 0 1
    outer loop
      vertex 10.9625 -4.88084 92
      vertex 8.09017 -5.87785 92
      vertex 9.7082 -7.05342 92
    endloop
  endfacet
  facet normal 0 0 1
    outer loop
      vertex 9.7082 -7.05342 92
      vertex 6.69131 -7.43145 92
      vertex 8.02957 -8.91774 92
    endloop
  endfacet
  facet normal 0 0 1
    outer loop
      vertex 8.02957 -8.91774 92
      vertex 5 -8.66025 92
      vertex 6 -10.3923 92
    endloop
  endfacet
  facet normal 0 0 1
    outer loop
      vertex 6 -10.3923 92
      vertex 3.09017 -9.51056 92
      vertex 3.7082 -11.4127 92
    endloop
  endfacet
  facet normal 0 0 1
    outer loop
      vertex 3.7082 -11.4127 92
      vertex 1.04529 -9.94522 92
      vertex 1.25434 -11.9343 92
    endloop
  endfacet
  facet normal 0 0 1
    outer loop
      vertex 1.25434 -11.9343 92
      vertex -1.04529 -9.94522 92
      vertex -1.25434 -11.9343 92
    endloop
  endfacet
  facet normal 0 0 1
    outer loop
      vertex -1.04529 -9.94522 92
      vertex -3.09017 -9.51056 92
      vertex -1.25434 -11.9343 92
    endloop
  endfacet
  facet normal 0 0 1
    outer loop
      vertex -1.25434 -11.9343 92
      vertex -5 -8.66025 92
      vertex -3.7082 -11.4127 92
    endloop
  endfacet
  facet normal 0 0 1
    outer loop
      vertex -3.7082 -11.4127 92
      vertex -6.69131 -7.43145 92
      vertex -6 -10.3923 92
    endloop
  endfacet
  facet normal 0 0 1
    outer loop
      vertex -6 -10.3923 92
      vertex -8.09017 -5.87785 92
      vertex -8.02957 -8.91774 92
    endloop
  endfacet
  facet normal 0 0 1
    outer loop
      vertex -8.09017 -5.87785 92
      vertex -9.13546 -4.06737 92
      vertex -8.02957 -8.91774 92
    endloop
  endfacet
  facet normal 0 0 1
    outer loop
      vertex 9.13546 -4.06737 92
      vertex 8.09017 -5.87785 92
      vertex 10.9625 -4.88084 92
    endloop
  endfacet
  facet normal -0.674343 -0.219107 0.705162
    outer loop
      vertex -11.7394 -2.5 91.9968
      vertex -12.7896 -5.69431 90
      vertex -10.9625 -4.88084 92
    endloop
  endfacet
  facet normal -0.674343 -0.219107 0.705162
    outer loop
      vertex -11.7361 -2.5 92
      vertex -11.7394 -2.5 91.9968
      vertex -10.9625 -4.88084 92
    endloop
  endfacet
  facet normal -0.614052 -0.354523 0.705162
    outer loop
      vertex -10.9625 -4.88084 92
      vertex -12.7896 -5.69431 90
      vertex -11.3262 -8.22899 90
    endloop
  endfacet
  facet normal -0.614052 -0.354523 -0.705162
    outer loop
      vertex -11.3262 -8.22899 90
      vertex -12.7896 -5.69431 90
      vertex -9.7082 -7.05342 88
    endloop
  endfacet
  facet normal -0.614052 -0.354523 -0.705162
    outer loop
      vertex -9.7082 -7.05342 88
      vertex -12.7896 -5.69431 90
      vertex -10.9625 -4.88084 88
    endloop
  endfacet
  facet normal -0.866025 -0.5 0
    outer loop
      vertex -10.9625 -4.88084 0
      vertex -9.7082 -7.05342 0
      vertex -10.9625 -4.88084 88
    endloop
  endfacet
  facet normal -0.866025 -0.5 0
    outer loop
      vertex -10.9625 -4.88084 88
      vertex -9.7082 -7.05342 0
      vertex -9.7082 -7.05342 88
    endloop
  endfacet
  facet normal -0.994522 -0.104529 0
    outer loop
      vertex -12 0 0
      vertex -11.7378 -2.49494 0
      vertex -12 0 44
    endloop
  endfacet
  facet normal -0.994522 -0.104529 0
    outer loop
      vertex -12 0 44
      vertex -11.7378 -2.49494 0
      vertex -11.7378 -2.49494 44
    endloop
  endfacet
  facet normal 0 0 -1
    outer loop
      vertex -12 0 0
      vertex -11.7378 2.49494 0
      vertex -11.7378 -2.49494 0
    endloop
  endfacet
  facet normal 0 0 -1
    outer loop
      vertex -11.7378 -2.49494 0
      vertex -11.7378 2.49494 0
      vertex -10.9625 4.88084 0
    endloop
  endfacet
  facet normal 0 0 -1
    outer loop
      vertex -11.7378 -2.49494 0
      vertex -10.9625 4.88084 0
      vertex -9.7082 7.05342 0
    endloop
  endfacet
  facet normal 0 0 -1
    outer loop
      vertex -11.7378 -2.49494 0
      vertex -9.7082 7.05342 0
      vertex -8.02957 8.91774 0
    endloop
  endfacet
  facet normal 0 0 -1
    outer loop
      vertex -11.7378 -2.49494 0
      vertex -8.02957 8.91774 0
      vertex -6 10.3923 0
    endloop
  endfacet
  facet normal 0 0 -1
    outer loop
      vertex -11.7378 -2.49494 0
      vertex -6 10.3923 0
      vertex -3.7082 11.4127 0
    endloop
  endfacet
  facet normal 0 0 -1
    outer loop
      vertex -11.7378 -2.49494 0
      vertex -3.7082 11.4127 0
      vertex -1.25434 11.9343 0
    endloop
  endfacet
  facet normal 0 0 -1
    outer loop
      vertex -11.7378 -2.49494 0
      vertex -1.25434 11.9343 0
      vertex 1.25434 11.9343 0
    endloop
  endfacet
  facet normal 0 0 -1
    outer loop
      vertex -11.7378 -2.49494 0
      vertex 1.25434 11.9343 0
      vertex 3.7082 11.4127 0
    endloop
  endfacet
  facet normal 0 0 -1
    outer loop
      vertex -11.7378 -2.49494 0
      vertex 3.7082 11.4127 0
      vertex 6 10.3923 0
    endloop
  endfacet
  facet normal 0 0 -1
    outer loop
      vertex -11.7378 -2.49494 0
      vertex 6 10.3923 0
      vertex 8.02957 8.91774 0
    endloop
  endfacet
  facet normal 0 0 -1
    outer loop
      vertex -11.7378 -2.49494 0
      vertex 8.02957 8.91774 0
      vertex 9.7082 7.05342 0
    endloop
  endfacet
  facet normal 0 0 -1
    outer loop
      vertex 1.24698 1.56366 0
      vertex 10.9625 4.88084 0
      vertex 11.7378 2.49494 0
    endloop
  endfacet
  facet normal 0 0 -1
    outer loop
      vertex 2 0 0
      vertex 11.7378 2.49494 0
      vertex 12 0 0
    endloop
  endfacet
  facet normal 0 0 -1
    outer loop
      vertex -0.445042 -1.94986 0
      vertex 12 0 0
      vertex 11.7378 -2.49494 0
    endloop
  endfacet
  facet normal 0 0 -1
    outer loop
      vertex -11.7378 -2.49494 0
      vertex 11.7378 -2.49494 0
      vertex 10.9625 -4.88084 0
    endloop
  endfacet
  facet normal 0 0 -1
    outer loop
      vertex -11.7378 -2.49494 0
      vertex 10.9625 -4.88084 0
      vertex 9.7082 -7.05342 0
    endloop
  endfacet
  facet normal 0 0 -1
    outer loop
      vertex -11.7378 -2.49494 0
      vertex 9.7082 -7.05342 0
      vertex 8.02957 -8.91774 0
    endloop
  endfacet
  facet normal 0 0 -1
    outer loop
      vertex -11.7378 -2.49494 0
      vertex 8.02957 -8.91774 0
      vertex 6 -10.3923 0
    endloop
  endfacet
  facet normal 0 0 -1
    outer loop
      vertex -11.7378 -2.49494 0
      vertex 6 -10.3923 0
      vertex 3.7082 -11.4127 0
    endloop
  endfacet
  facet normal 0 0 -1
    outer loop
      vertex -11.7378 -2.49494 0
      vertex 3.7082 -11.4127 0
      vertex 1.25434 -11.9343 0
    endloop
  endfacet
  facet normal 0 0 -1
    outer loop
      vertex -11.7378 -2.49494 0
      vertex 1.25434 -11.9343 0
      vertex -1.25434 -11.9343 0
    endloop
  endfacet
  facet normal 0 0 -1
    outer loop
      vertex -11.7378 -2.49494 0
      vertex -1.25434 -11.9343 0
      vertex -3.7082 -11.4127 0
    endloop
  endfacet
  facet normal 0 0 -1
    outer loop
      vertex -11.7378 -2.49494 0
      vertex -3.7082 -11.4127 0
      vertex -6 -10.3923 0
    endloop
  endfacet
  facet normal 0 0 -1
    outer loop
      vertex -11.7378 -2.49494 0
      vertex -6 -10.3923 0
      vertex -8.02957 -8.91774 0
    endloop
  endfacet
  facet normal 0 0 -1
    outer loop
      vertex -11.7378 -2.49494 0
      vertex -8.02957 -8.91774 0
      vertex -9.7082 -7.05342 0
    endloop
  endfacet
  facet normal 0 0 -1
    outer loop
      vertex -11.7378 -2.49494 0
      vertex -9.7082 -7.05342 0
      vertex -10.9625 -4.88084 0
    endloop
  endfacet
  facet normal 0 0 -1
    outer loop
      vertex -0.445042 -1.94986 0
      vertex -11.7378 -2.49494 0
      vertex -1.80194 -0.867767 0
    endloop
  endfacet
  facet normal 0 0 -1
    outer loop
      vertex 1.24698 -1.56366 0
      vertex 12 0 0
      vertex -0.445042 -1.94986 0
    endloop
  endfacet
  facet normal 0 0 -1
    outer loop
      vertex -11.7378 -2.49494 0
      vertex -0.445042 -1.94986 0
      vertex 11.7378 -2.49494 0
    endloop
  endfacet
  facet normal 0 0 -1
    outer loop
      vertex 2 0 0
      vertex 12 0 0
      vertex 1.24698 -1.56366 0
    endloop
  endfacet
  facet normal 0 0 -1
    outer loop
      vertex 1.24698 1.56366 0
      vertex 11.7378 2.49494 0
      vertex 2 0 0
    endloop
  endfacet
  facet normal 0 0 -1
    outer loop
      vertex -11.7378 -2.49494 0
      vertex 9.7082 7.05342 0
      vertex -0.445042 1.94986 0
    endloop
  endfacet
  facet normal 0 0 -1
    outer loop
      vertex -11.7378 -2.49494 0
      vertex -0.445042 1.94986 0
      vertex -1.80194 0.867767 0
    endloop
  endfacet
  facet normal 0 0 -1
    outer loop
      vertex -1.80194 -0.867767 0
      vertex -11.7378 -2.49494 0
      vertex -1.80194 0.867767 0
    endloop
  endfacet
  facet normal 0 0 -1
    outer loop
      vertex -0.445042 1.94986 0
      vertex 9.7082 7.05342 0
      vertex 10.9625 4.88084 0
    endloop
  endfacet
  facet normal 0 0 -1
    outer loop
      vertex -0.445042 1.94986 0
      vertex 10.9625 4.88084 0
      vertex 1.24698 1.56366 0
    endloop
  endfacet
  facet normal -0.994522 0.104529 0
    outer loop
      vertex -12 0 0
      vertex -12 0 44
      vertex -11.7378 2.49494 0
    endloop
  endfacet
  facet normal -0.994522 0.104529 0
    outer loop
      vertex -11.7378 2.49494 0
      vertex -12 0 44
      vertex -11.7378 2.49494 44
    endloop
  endfacet
  facet normal -0.951057 0.309017 0
    outer loop
      vertex -11.7378 2.49494 0
      vertex -11.7378 2.49494 44
      vertex -10.9625 4.88084 0
    endloop
  endfacet
  facet normal -0.951057 0.309017 0
    outer loop
      vertex -10.9625 4.88084 0
      vertex -11.7378 2.49494 44
      vertex -11.7361 2.5 44
    endloop
  endfacet
  facet normal -0.951057 0.309017 0
    outer loop
      vertex -10.9625 4.88084 0
      vertex -11.7361 2.5 44
      vertex -11.7361 2.5 88
    endloop
  endfacet
  facet normal -0.951057 0.309017 0
    outer loop
      vertex -10.9625 4.88084 0
      vertex -11.7361 2.5 88
      vertex -10.9625 4.88084 88
    endloop
  endfacet
  facet normal 0 -1 0
    outer loop
      vertex -13.455 2.5 89.7178
      vertex -11.7616 2.5 88.0243
      vertex -11.7394 2.5 88.0032
    endloop
  endfacet
  facet normal 0 -1 0
    outer loop
      vertex -9.64472 2.5 92
      vertex -13.455 2.5 89.7178
      vertex -11.7361 2.5 88
    endloop
  endfacet
  facet normal 0 -1 0
    outer loop
      vertex -11.7361 2.5 88
      vertex -13.455 2.5 89.7178
      vertex -11.7394 2.5 88.0032
    endloop
  endfacet
  facet normal 0 -1 0
    outer loop
      vertex -11.7361 2.5 44
      vertex -9.64472 2.5 44
      vertex -11.7361 2.5 88
    endloop
  endfacet
  facet normal 0 -1 0
    outer loop
      vertex -9.64472 2.5 44
      vertex -9.64472 2.5 92
      vertex -11.7361 2.5 88
    endloop
  endfacet
  facet normal 0 -1 0
    outer loop
      vertex -9.64472 2.5 92
      vertex -11.7361 2.5 92
      vertex -13.455 2.5 89.7178
    endloop
  endfacet
  facet normal 0 -1 0
    outer loop
      vertex -11.7361 2.5 92
      vertex -11.7616 2.5 91.9757
      vertex -13.455 2.5 89.7178
    endloop
  endfacet
  facet normal 0 -1 0
    outer loop
      vertex -11.7616 2.5 91.9757
      vertex -13.7372 2.5 90
      vertex -13.455 2.5 89.7178
    endloop
  endfacet
  facet normal 0.951057 -0.309017 0
    outer loop
      vertex -9.13546 4.06737 2
      vertex -9.13546 4.06737 92
      vertex -9.64472 2.5 92
    endloop
  endfacet
  facet normal 0.951057 -0.309017 0
    outer loop
      vertex -9.78148 2.07912 44
      vertex -9.13546 4.06737 2
      vertex -9.64472 2.5 44
    endloop
  endfacet
  facet normal 0.951057 -0.309017 0
    outer loop
      vertex -9.64472 2.5 44
      vertex -9.13546 4.06737 2
      vertex -9.64472 2.5 92
    endloop
  endfacet
  facet normal 0.951057 -0.309017 0
    outer loop
      vertex -9.78148 2.07912 2
      vertex -9.13546 4.06737 2
      vertex -9.78148 2.07912 44
    endloop
  endfacet
  facet normal 0.994522 -0.104528 0
    outer loop
      vertex -9.78148 2.07912 2
      vertex -9.78148 2.07912 44
      vertex -10 0 44
    endloop
  endfacet
  facet normal 0.994522 -0.104528 0
    outer loop
      vertex -10 0 2
      vertex -9.78148 2.07912 2
      vertex -10 0 44
    endloop
  endfacet
  facet normal 0.994522 0.104528 0
    outer loop
      vertex -10 0 44
      vertex -9.78148 -2.07912 44
      vertex -9.78148 -2.07912 2
    endloop
  endfacet
  facet normal 0.994522 0.104528 0
    outer loop
      vertex -10 0 2
      vertex -10 0 44
      vertex -9.78148 -2.07912 2
    endloop
  endfacet
  facet normal 0 0 1
    outer loop
      vertex -9.78148 -2.07912 2
      vertex -9.13546 -4.06737 2
      vertex -8.09017 -5.87785 2
    endloop
  endfacet
  facet normal 0 0 1
    outer loop
      vertex -5 -8.66025 2
      vertex -9.78148 -2.07912 2
      vertex -6.69131 -7.43145 2
    endloop
  endfacet
  facet normal 0 0 1
    outer loop
      vertex -6.69131 -7.43145 2
      vertex -9.78148 -2.07912 2
      vertex -8.09017 -5.87785 2
    endloop
  endfacet
  facet normal 0 0 1
    outer loop
      vertex -3.09017 -9.51056 2
      vertex -9.78148 -2.07912 2
      vertex -5 -8.66025 2
    endloop
  endfacet
  facet normal 0 0 1
    outer loop
      vertex -1.04529 -9.94522 2
      vertex -9.78148 -2.07912 2
      vertex -3.09017 -9.51056 2
    endloop
  endfacet
  facet normal 0 0 1
    outer loop
      vertex 1.04529 -9.94522 2
      vertex -9.78148 -2.07912 2
      vertex -1.04529 -9.94522 2
    endloop
  endfacet
  facet normal 0 0 1
    outer loop
      vertex 3.09017 -9.51056 2
      vertex -9.78148 -2.07912 2
      vertex 1.04529 -9.94522 2
    endloop
  endfacet
  facet normal 0 0 1
    outer loop
      vertex 5 -8.66025 2
      vertex -9.78148 -2.07912 2
      vertex 3.09017 -9.51056 2
    endloop
  endfacet
  facet normal 0 0 1
    outer loop
      vertex 6.69131 -7.43145 2
      vertex -9.78148 -2.07912 2
      vertex 5 -8.66025 2
    endloop
  endfacet
  facet normal 0 0 1
    outer loop
      vertex 8.09017 -5.87785 2
      vertex -9.78148 -2.07912 2
      vertex 6.69131 -7.43145 2
    endloop
  endfacet
  facet normal 0 0 1
    outer loop
      vertex 9.13546 -4.06737 2
      vertex -9.78148 -2.07912 2
      vertex 8.09017 -5.87785 2
    endloop
  endfacet
  facet normal 0 0 1
    outer loop
      vertex 9.78148 -2.07912 2
      vertex -9.78148 -2.07912 2
      vertex 9.13546 -4.06737 2
    endloop
  endfacet
  facet normal 0 0 1
    outer loop
      vertex -0.445042 -1.94986 2
      vertex -9.78148 -2.07912 2
      vertex 9.78148 -2.07912 2
    endloop
  endfacet
  facet normal 0 0 1
    outer loop
      vertex -0.445042 -1.94986 2
      vertex -1.80194 -0.867767 2
      vertex -9.78148 -2.07912 2
    endloop
  endfacet
  facet normal 0 0 1
    outer loop
      vertex -0.445042 1.94986 2
      vertex 1.24698 1.56366 2
      vertex 9.13546 4.06737 2
    endloop
  endfacet
  facet normal 0 0 1
    outer loop
      vertex -0.445042 1.94986 2
      vertex 9.13546 4.06737 2
      vertex 8.09017 5.87785 2
    endloop
  endfacet
  facet normal 0 0 1
    outer loop
      vertex 6.69131 7.43145 2
      vertex -9.78148 -2.07912 2
      vertex 8.09017 5.87785 2
    endloop
  endfacet
  facet normal 0 0 1
    outer loop
      vertex 5 8.66025 2
      vertex -9.78148 -2.07912 2
      vertex 6.69131 7.43145 2
    endloop
  endfacet
  facet normal 0 0 1
    outer loop
      vertex 3.09017 9.51056 2
      vertex -9.78148 -2.07912 2
      vertex 5 8.66025 2
    endloop
  endfacet
  facet normal 0 0 1
    outer loop
      vertex 1.04529 9.94522 2
      vertex -9.78148 -2.07912 2
      vertex 3.09017 9.51056 2
    endloop
  endfacet
  facet normal 0 0 1
    outer loop
      vertex -1.04529 9.94522 2
      vertex -9.78148 -2.07912 2
      vertex 1.04529 9.94522 2
    endloop
  endfacet
  facet normal 0 0 1
    outer loop
      vertex -3.09017 9.51056 2
      vertex -9.78148 -2.07912 2
      vertex -1.04529 9.94522 2
    endloop
  endfacet
  facet normal 0 0 1
    outer loop
      vertex -5 8.66025 2
      vertex -9.78148 -2.07912 2
      vertex -3.09017 9.51056 2
    endloop
  endfacet
  facet normal 0 0 1
    outer loop
      vertex -6.69131 7.43145 2
      vertex -9.78148 -2.07912 2
      vertex -5 8.66025 2
    endloop
  endfacet
  facet normal 0 0 1
    outer loop
      vertex -8.09017 5.87785 2
      vertex -9.78148 -2.07912 2
      vertex -6.69131 7.43145 2
    endloop
  endfacet
  facet normal 0 0 1
    outer loop
      vertex -9.13546 4.06737 2
      vertex -9.78148 -2.07912 2
      vertex -8.09017 5.87785 2
    endloop
  endfacet
  facet normal 0 0 1
    outer loop
      vertex -9.78148 2.07912 2
      vertex -9.78148 -2.07912 2
      vertex -9.13546 4.06737 2
    endloop
  endfacet
  facet normal 0 0 1
    outer loop
      vertex -10 0 2
      vertex -9.78148 -2.07912 2
      vertex -9.78148 2.07912 2
    endloop
  endfacet
  facet normal 0 0 1
    outer loop
      vertex 1.24698 1.56366 2
      vertex 2 0 2
      vertex 9.78148 2.07912 2
    endloop
  endfacet
  facet normal 0 0 1
    outer loop
      vertex -0.445042 1.94986 2
      vertex -9.78148 -2.07912 2
      vertex -1.80194 0.867767 2
    endloop
  endfacet
  facet normal 0 0 1
    outer loop
      vertex 2 0 2
      vertex 1.24698 -1.56366 2
      vertex 10 0 2
    endloop
  endfacet
  facet normal 0 0 1
    outer loop
      vertex 8.09017 5.87785 2
      vertex -9.78148 -2.07912 2
      vertex -0.445042 1.94986 2
    endloop
  endfacet
  facet normal 0 0 1
    outer loop
      vertex 9.78148 2.07912 2
      vertex 2 0 2
      vertex 10 0 2
    endloop
  endfacet
  facet normal 0 0 1
    outer loop
      vertex 10 0 2
      vertex 1.24698 -1.56366 2
      vertex 9.78148 -2.07912 2
    endloop
  endfacet
  facet normal 0 0 1
    outer loop
      vertex 1.24698 -1.56366 2
      vertex -0.445042 -1.94986 2
      vertex 9.78148 -2.07912 2
    endloop
  endfacet
  facet normal 0 0 1
    outer loop
      vertex 1.24698 1.56366 2
      vertex 9.78148 2.07912 2
      vertex 9.13546 4.06737 2
    endloop
  endfacet
  facet normal 0 0 1
    outer loop
      vertex -1.80194 -0.867767 2
      vertex -1.80194 0.867767 2
      vertex -9.78148 -2.07912 2
    endloop
  endfacet
  facet normal 0.866025 0.5 0
    outer loop
      vertex -9.13546 -4.06737 92
      vertex -8.09017 -5.87785 92
      vertex -8.09017 -5.87785 2
    endloop
  endfacet
  facet normal 0.866025 0.5 0
    outer loop
      vertex -9.13546 -4.06737 2
      vertex -9.13546 -4.06737 92
      vertex -8.09017 -5.87785 2
    endloop
  endfacet
  facet normal 0.743145 0.669131 0
    outer loop
      vertex -8.09017 -5.87785 92
      vertex -6.69131 -7.43145 92
      vertex -6.69131 -7.43145 2
    endloop
  endfacet
  facet normal 0.743145 0.669131 0
    outer loop
      vertex -8.09017 -5.87785 2
      vertex -8.09017 -5.87785 92
      vertex -6.69131 -7.43145 2
    endloop
  endfacet
  facet normal 0.587785 0.809017 0
    outer loop
      vertex -5 -8.66025 92
      vertex -5 -8.66025 2
      vertex -6.69131 -7.43145 92
    endloop
  endfacet
  facet normal 0.587785 0.809017 0
    outer loop
      vertex -6.69131 -7.43145 92
      vertex -5 -8.66025 2
      vertex -6.69131 -7.43145 2
    endloop
  endfacet
  facet normal 0.406737 0.913545 0
    outer loop
      vertex -3.09017 -9.51056 92
      vertex -3.09017 -9.51056 2
      vertex -5 -8.66025 92
    endloop
  endfacet
  facet normal 0.406737 0.913545 0
    outer loop
      vertex -5 -8.66025 92
      vertex -3.09017 -9.51056 2
      vertex -5 -8.66025 2
    endloop
  endfacet
  facet normal 0.207912 0.978148 0
    outer loop
      vertex -1.04529 -9.94522 92
      vertex -1.04529 -9.94522 2
      vertex -3.09017 -9.51056 92
    endloop
  endfacet
  facet normal 0.207912 0.978148 0
    outer loop
      vertex -3.09017 -9.51056 92
      vertex -1.04529 -9.94522 2
      vertex -3.09017 -9.51056 2
    endloop
  endfacet
  facet normal 0 1 0
    outer loop
      vertex 1.04529 -9.94522 92
      vertex 1.04529 -9.94522 2
      vertex -1.04529 -9.94522 92
    endloop
  endfacet
  facet normal 0 1 0
    outer loop
      vertex -1.04529 -9.94522 92
      vertex 1.04529 -9.94522 2
      vertex -1.04529 -9.94522 2
    endloop
  endfacet
  facet normal -0.207912 0.978148 0
    outer loop
      vertex 3.09017 -9.51056 92
      vertex 3.09017 -9.51056 2
      vertex 1.04529 -9.94522 92
    endloop
  endfacet
  facet normal -0.207912 0.978148 0
    outer loop
      vertex 1.04529 -9.94522 92
      vertex 3.09017 -9.51056 2
      vertex 1.04529 -9.94522 2
    endloop
  endfacet
  facet normal -0.406737 0.913545 0
    outer loop
      vertex 5 -8.66025 92
      vertex 5 -8.66025 2
      vertex 3.09017 -9.51056 92
    endloop
  endfacet
  facet normal -0.406737 0.913545 0
    outer loop
      vertex 3.09017 -9.51056 92
      vertex 5 -8.66025 2
      vertex 3.09017 -9.51056 2
    endloop
  endfacet
  facet normal -0.587785 0.809017 0
    outer loop
      vertex 6.69131 -7.43145 92
      vertex 6.69131 -7.43145 2
      vertex 5 -8.66025 92
    endloop
  endfacet
  facet normal -0.587785 0.809017 0
    outer loop
      vertex 5 -8.66025 92
      vertex 6.69131 -7.43145 2
      vertex 5 -8.66025 2
    endloop
  endfacet
  facet normal -0.743145 0.669131 0
    outer loop
      vertex 8.09017 -5.87785 92
      vertex 8.09017 -5.87785 2
      vertex 6.69131 -7.43145 92
    endloop
  endfacet
  facet normal -0.743145 0.669131 0
    outer loop
      vertex 6.69131 -7.43145 92
      vertex 8.09017 -5.87785 2
      vertex 6.69131 -7.43145 2
    endloop
  endfacet
  facet normal -0.866025 0.5 0
    outer loop
      vertex 9.13546 -4.06737 92
      vertex 9.13546 -4.06737 2
      vertex 8.09017 -5.87785 92
    endloop
  endfacet
  facet normal -0.866025 0.5 0
    outer loop
      vertex 8.09017 -5.87785 92
      vertex 9.13546 -4.06737 2
      vertex 8.09017 -5.87785 2
    endloop
  endfacet
  facet normal -0.951057 0.309017 0
    outer loop
      vertex 9.64472 -2.5 92
      vertex 9.64472 -2.5 44
      vertex 9.13546 -4.06737 92
    endloop
  endfacet
  facet normal -0.951057 0.309017 0
    outer loop
      vertex 9.78148 -2.07912 2
      vertex 9.64472 -2.5 44
      vertex 9.78148 -2.07912 44
    endloop
  endfacet
  facet normal -0.951057 0.309017 0
    outer loop
      vertex 9.13546 -4.06737 92
      vertex 9.64472 -2.5 44
      vertex 9.78148 -2.07912 2
    endloop
  endfacet
  facet normal -0.951057 0.309017 0
    outer loop
      vertex 9.13546 -4.06737 92
      vertex 9.78148 -2.07912 2
      vertex 9.13546 -4.06737 2
    endloop
  endfacet
  facet normal 0 1 0
    outer loop
      vertex 11.7361 -2.5 92
      vertex 11.7616 -2.5 91.9757
      vertex 9.64472 -2.5 92
    endloop
  endfacet
  facet normal 0 1 0
    outer loop
      vertex 9.64472 -2.5 92
      vertex 11.7616 -2.5 91.9757
      vertex 13.7372 -2.5 90
    endloop
  endfacet
  facet normal 0 1 0
    outer loop
      vertex 9.64472 -2.5 92
      vertex 13.7372 -2.5 90
      vertex 13.455 -2.5 89.7178
    endloop
  endfacet
  facet normal 0 1 0
    outer loop
      vertex 9.64472 -2.5 92
      vertex 13.455 -2.5 89.7178
      vertex 11.7616 -2.5 88.0243
    endloop
  endfacet
  facet normal 0 1 0
    outer loop
      vertex 9.64472 -2.5 92
      vertex 11.7616 -2.5 88.0243
      vertex 11.7394 -2.5 88.0032
    endloop
  endfacet
  facet normal 0 1 0
    outer loop
      vertex 9.64472 -2.5 92
      vertex 11.7394 -2.5 88.0032
      vertex 11.7361 -2.5 88
    endloop
  endfacet
  facet normal 0 1 0
    outer loop
      vertex 9.64472 -2.5 92
      vertex 11.7361 -2.5 88
      vertex 11.7361 -2.5 44
    endloop
  endfacet
  facet normal 0 1 0
    outer loop
      vertex 9.64472 -2.5 92
      vertex 11.7361 -2.5 44
      vertex 9.64472 -2.5 44
    endloop
  endfacet
  facet normal 0.674343 -0.219107 0.705162
    outer loop
      vertex 11.7361 -2.5 92
      vertex 10.9625 -4.88084 92
      vertex 13.6941 -2.91076 90
    endloop
  endfacet
  facet normal 0.674343 -0.219107 0.705162
    outer loop
      vertex 11.7616 -2.5 91.9757
      vertex 11.7361 -2.5 92
      vertex 13.6941 -2.91076 90
    endloop
  endfacet
  facet normal 0.674343 -0.219107 0.705162
    outer loop
      vertex 13.6941 -2.91076 90
      vertex 10.9625 -4.88084 92
      vertex 12.7896 -5.69431 90
    endloop
  endfacet
  facet normal 0.614052 -0.354523 0.705162
    outer loop
      vertex 10.9625 -4.88084 92
      vertex 9.7082 -7.05342 92
      vertex 12.7896 -5.69431 90
    endloop
  endfacet
  facet normal 0.614052 -0.354523 0.705162
    outer loop
      vertex 12.7896 -5.69431 90
      vertex 9.7082 -7.05342 92
      vertex 11.3262 -8.22899 90
    endloop
  endfacet
  facet normal 0.526924 -0.474445 0.705162
    outer loop
      vertex 9.7082 -7.05342 92
      vertex 8.02957 -8.91774 92
      vertex 11.3262 -8.22899 90
    endloop
  endfacet
  facet normal 0.526924 -0.474445 0.705162
    outer loop
      vertex 11.3262 -8.22899 90
      vertex 8.02957 -8.91774 92
      vertex 9.36783 -10.404 90
    endloop
  endfacet
  facet normal 0.416767 -0.57363 0.705162
    outer loop
      vertex 8.02957 -8.91774 92
      vertex 6 -10.3923 92
      vertex 9.36783 -10.404 90
    endloop
  endfacet
  facet normal 0.416767 -0.57363 0.705162
    outer loop
      vertex 9.36783 -10.404 90
      vertex 6 -10.3923 92
      vertex 7 -12.1244 90
    endloop
  endfacet
  facet normal 0.288395 -0.647746 0.705162
    outer loop
      vertex 6 -10.3923 92
      vertex 3.7082 -11.4127 92
      vertex 7 -12.1244 90
    endloop
  endfacet
  facet normal 0.288395 -0.647746 0.705162
    outer loop
      vertex 7 -12.1244 90
      vertex 3.7082 -11.4127 92
      vertex 4.32624 -13.3148 90
    endloop
  endfacet
  facet normal 0.147419 -0.693552 0.705162
    outer loop
      vertex 3.7082 -11.4127 92
      vertex 1.25434 -11.9343 92
      vertex 4.32624 -13.3148 90
    endloop
  endfacet
  facet normal 0.147419 -0.693552 0.705162
    outer loop
      vertex 4.32624 -13.3148 90
      vertex 1.25434 -11.9343 92
      vertex 1.4634 -13.9233 90
    endloop
  endfacet
  facet normal 0 -0.709046 0.705162
    outer loop
      vertex -1.25434 -11.9343 92
      vertex -1.4634 -13.9233 90
      vertex 1.4634 -13.9233 90
    endloop
  endfacet
  facet normal 0 -0.709046 0.705162
    outer loop
      vertex 1.25434 -11.9343 92
      vertex -1.25434 -11.9343 92
      vertex 1.4634 -13.9233 90
    endloop
  endfacet
  facet normal -0.147419 -0.693552 0.705162
    outer loop
      vertex -1.25434 -11.9343 92
      vertex -3.7082 -11.4127 92
      vertex -1.4634 -13.9233 90
    endloop
  endfacet
  facet normal -0.147419 -0.693552 0.705162
    outer loop
      vertex -3.7082 -11.4127 92
      vertex -4.32624 -13.3148 90
      vertex -1.4634 -13.9233 90
    endloop
  endfacet
  facet normal -0.288395 -0.647746 0.705162
    outer loop
      vertex -3.7082 -11.4127 92
      vertex -6 -10.3923 92
      vertex -4.32624 -13.3148 90
    endloop
  endfacet
  facet normal -0.288395 -0.647746 0.705162
    outer loop
      vertex -6 -10.3923 92
      vertex -7 -12.1244 90
      vertex -4.32624 -13.3148 90
    endloop
  endfacet
  facet normal -0.416767 -0.57363 0.705162
    outer loop
      vertex -6 -10.3923 92
      vertex -8.02957 -8.91774 92
      vertex -7 -12.1244 90
    endloop
  endfacet
  facet normal -0.416767 -0.57363 0.705162
    outer loop
      vertex -8.02957 -8.91774 92
      vertex -9.36783 -10.404 90
      vertex -7 -12.1244 90
    endloop
  endfacet
  facet normal -0.526924 -0.474445 0.705162
    outer loop
      vertex -8.02957 -8.91774 92
      vertex -9.7082 -7.05342 92
      vertex -9.36783 -10.404 90
    endloop
  endfacet
  facet normal -0.526924 -0.474445 0.705162
    outer loop
      vertex -9.7082 -7.05342 92
      vertex -11.3262 -8.22899 90
      vertex -9.36783 -10.404 90
    endloop
  endfacet
  facet normal -0.614052 -0.354523 0.705162
    outer loop
      vertex -10.9625 -4.88084 92
      vertex -11.3262 -8.22899 90
      vertex -9.7082 -7.05342 92
    endloop
  endfacet
  facet normal -0.526924 -0.474445 -0.705162
    outer loop
      vertex -9.36783 -10.404 90
      vertex -11.3262 -8.22899 90
      vertex -8.02957 -8.91774 88
    endloop
  endfacet
  facet normal -0.526924 -0.474445 -0.705162
    outer loop
      vertex -8.02957 -8.91774 88
      vertex -11.3262 -8.22899 90
      vertex -9.7082 -7.05342 88
    endloop
  endfacet
  facet normal -0.743145 -0.669131 0
    outer loop
      vertex -9.7082 -7.05342 0
      vertex -8.02957 -8.91774 0
      vertex -9.7082 -7.05342 88
    endloop
  endfacet
  facet normal -0.743145 -0.669131 0
    outer loop
      vertex -9.7082 -7.05342 88
      vertex -8.02957 -8.91774 0
      vertex -8.02957 -8.91774 88
    endloop
  endfacet
  facet normal -0.587785 -0.809017 0
    outer loop
      vertex -8.02957 -8.91774 88
      vertex -8.02957 -8.91774 0
      vertex -6 -10.3923 0
    endloop
  endfacet
  facet normal -0.587785 -0.809017 0
    outer loop
      vertex -6 -10.3923 88
      vertex -8.02957 -8.91774 88
      vertex -6 -10.3923 0
    endloop
  endfacet
  facet normal -0.406737 -0.913546 0
    outer loop
      vertex -6 -10.3923 88
      vertex -6 -10.3923 0
      vertex -3.7082 -11.4127 0
    endloop
  endfacet
  facet normal -0.406737 -0.913546 0
    outer loop
      vertex -3.7082 -11.4127 88
      vertex -6 -10.3923 88
      vertex -3.7082 -11.4127 0
    endloop
  endfacet
  facet normal -0.207912 -0.978148 0
    outer loop
      vertex -3.7082 -11.4127 88
      vertex -3.7082 -11.4127 0
      vertex -1.25434 -11.9343 0
    endloop
  endfacet
  facet normal -0.207912 -0.978148 0
    outer loop
      vertex -1.25434 -11.9343 88
      vertex -3.7082 -11.4127 88
      vertex -1.25434 -11.9343 0
    endloop
  endfacet
  facet normal 0 -1 0
    outer loop
      vertex -1.25434 -11.9343 88
      vertex -1.25434 -11.9343 0
      vertex 1.25434 -11.9343 0
    endloop
  endfacet
  facet normal 0 -1 0
    outer loop
      vertex 1.25434 -11.9343 88
      vertex -1.25434 -11.9343 88
      vertex 1.25434 -11.9343 0
    endloop
  endfacet
  facet normal 0.207912 -0.978148 0
    outer loop
      vertex 1.25434 -11.9343 88
      vertex 1.25434 -11.9343 0
      vertex 3.7082 -11.4127 0
    endloop
  endfacet
  facet normal 0.207912 -0.978148 0
    outer loop
      vertex 3.7082 -11.4127 88
      vertex 1.25434 -11.9343 88
      vertex 3.7082 -11.4127 0
    endloop
  endfacet
  facet normal 0.406737 -0.913546 0
    outer loop
      vertex 3.7082 -11.4127 88
      vertex 3.7082 -11.4127 0
      vertex 6 -10.3923 0
    endloop
  endfacet
  facet normal 0.406737 -0.913546 0
    outer loop
      vertex 6 -10.3923 88
      vertex 3.7082 -11.4127 88
      vertex 6 -10.3923 0
    endloop
  endfacet
  facet normal 0.587785 -0.809017 0
    outer loop
      vertex 6 -10.3923 88
      vertex 6 -10.3923 0
      vertex 8.02957 -8.91774 0
    endloop
  endfacet
  facet normal 0.587785 -0.809017 0
    outer loop
      vertex 8.02957 -8.91774 88
      vertex 6 -10.3923 88
      vertex 8.02957 -8.91774 0
    endloop
  endfacet
  facet normal 0.743145 -0.669131 0
    outer loop
      vertex 8.02957 -8.91774 88
      vertex 8.02957 -8.91774 0
      vertex 9.7082 -7.05342 0
    endloop
  endfacet
  facet normal 0.743145 -0.669131 0
    outer loop
      vertex 9.7082 -7.05342 88
      vertex 8.02957 -8.91774 88
      vertex 9.7082 -7.05342 0
    endloop
  endfacet
  facet normal 0.866025 -0.5 0
    outer loop
      vertex 9.7082 -7.05342 88
      vertex 9.7082 -7.05342 0
      vertex 10.9625 -4.88084 0
    endloop
  endfacet
  facet normal 0.866025 -0.5 0
    outer loop
      vertex 10.9625 -4.88084 88
      vertex 9.7082 -7.05342 88
      vertex 10.9625 -4.88084 0
    endloop
  endfacet
  facet normal 0.951057 -0.309017 0
    outer loop
      vertex 10.9625 -4.88084 88
      vertex 10.9625 -4.88084 0
      vertex 11.7378 -2.49494 0
    endloop
  endfacet
  facet normal 0.951057 -0.309017 0
    outer loop
      vertex 11.7361 -2.5 44
      vertex 10.9625 -4.88084 88
      vertex 11.7378 -2.49494 0
    endloop
  endfacet
  facet normal 0.951057 -0.309017 0
    outer loop
      vertex 11.7378 -2.49494 44
      vertex 11.7361 -2.5 44
      vertex 11.7378 -2.49494 0
    endloop
  endfacet
  facet normal 0.951057 -0.309017 0
    outer loop
      vertex 11.7361 -2.5 44
      vertex 11.7361 -2.5 88
      vertex 10.9625 -4.88084 88
    endloop
  endfacet
  facet normal 0.994522 -0.104529 0
    outer loop
      vertex 11.7378 -2.49494 44
      vertex 11.7378 -2.49494 0
      vertex 12 0 0
    endloop
  endfacet
  facet normal 0.994522 -0.104529 0
    outer loop
      vertex 12 0 44
      vertex 11.7378 -2.49494 44
      vertex 12 0 0
    endloop
  endfacet
  facet normal 0.994522 0.104529 0
    outer loop
      vertex 12 0 0
      vertex 11.7378 2.49494 0
      vertex 11.7378 2.49494 44
    endloop
  endfacet
  facet normal 0.994522 0.104529 0
    outer loop
      vertex 12 0 44
      vertex 12 0 0
      vertex 11.7378 2.49494 44
    endloop
  endfacet
  facet normal 0.951057 0.309017 0
    outer loop
      vertex 11.7378 2.49494 0
      vertex 10.9625 4.88084 0
      vertex 10.9625 4.88084 88
    endloop
  endfacet
  facet normal 0.951057 0.309017 0
    outer loop
      vertex 11.7361 2.5 44
      vertex 11.7378 2.49494 0
      vertex 10.9625 4.88084 88
    endloop
  endfacet
  facet normal 0.951057 0.309017 0
    outer loop
      vertex 11.7361 2.5 88
      vertex 11.7361 2.5 44
      vertex 10.9625 4.88084 88
    endloop
  endfacet
  facet normal 0.951057 0.309017 0
    outer loop
      vertex 11.7361 2.5 44
      vertex 11.7378 2.49494 44
      vertex 11.7378 2.49494 0
    endloop
  endfacet
  facet normal 0.866025 0.5 0
    outer loop
      vertex 10.9625 4.88084 0
      vertex 9.7082 7.05342 0
      vertex 9.7082 7.05342 88
    endloop
  endfacet
  facet normal 0.866025 0.5 0
    outer loop
      vertex 10.9625 4.88084 88
      vertex 10.9625 4.88084 0
      vertex 9.7082 7.05342 88
    endloop
  endfacet
  facet normal 0.743145 0.669131 0
    outer loop
      vertex 9.7082 7.05342 0
      vertex 8.02957 8.91774 0
      vertex 8.02957 8.91774 88
    endloop
  endfacet
  facet normal 0.743145 0.669131 0
    outer loop
      vertex 9.7082 7.05342 88
      vertex 9.7082 7.05342 0
      vertex 8.02957 8.91774 88
    endloop
  endfacet
  facet normal 0.587785 0.809017 0
    outer loop
      vertex 6 10.3923 0
      vertex 6 10.3923 88
      vertex 8.02957 8.91774 0
    endloop
  endfacet
  facet normal 0.587785 0.809017 0
    outer loop
      vertex 8.02957 8.91774 0
      vertex 6 10.3923 88
      vertex 8.02957 8.91774 88
    endloop
  endfacet
  facet normal 0.406737 0.913546 0
    outer loop
      vertex 3.7082 11.4127 0
      vertex 3.7082 11.4127 88
      vertex 6 10.3923 0
    endloop
  endfacet
  facet normal 0.406737 0.913546 0
    outer loop
      vertex 6 10.3923 0
      vertex 3.7082 11.4127 88
      vertex 6 10.3923 88
    endloop
  endfacet
  facet normal 0.207912 0.978148 0
    outer loop
      vertex 1.25434 11.9343 0
      vertex 1.25434 11.9343 88
      vertex 3.7082 11.4127 0
    endloop
  endfacet
  facet normal 0.207912 0.978148 0
    outer loop
      vertex 3.7082 11.4127 0
      vertex 1.25434 11.9343 88
      vertex 3.7082 11.4127 88
    endloop
  endfacet
  facet normal 0 1 0
    outer loop
      vertex -1.25434 11.9343 0
      vertex -1.25434 11.9343 88
      vertex 1.25434 11.9343 0
    endloop
  endfacet
  facet normal 0 1 0
    outer loop
      vertex 1.25434 11.9343 0
      vertex -1.25434 11.9343 88
      vertex 1.25434 11.9343 88
    endloop
  endfacet
  facet normal -0.207912 0.978148 0
    outer loop
      vertex -3.7082 11.4127 0
      vertex -3.7082 11.4127 88
      vertex -1.25434 11.9343 0
    endloop
  endfacet
  facet normal -0.207912 0.978148 0
    outer loop
      vertex -1.25434 11.9343 0
      vertex -3.7082 11.4127 88
      vertex -1.25434 11.9343 88
    endloop
  endfacet
  facet normal -0.406737 0.913546 0
    outer loop
      vertex -6 10.3923 0
      vertex -6 10.3923 88
      vertex -3.7082 11.4127 0
    endloop
  endfacet
  facet normal -0.406737 0.913546 0
    outer loop
      vertex -3.7082 11.4127 0
      vertex -6 10.3923 88
      vertex -3.7082 11.4127 88
    endloop
  endfacet
  facet normal -0.587785 0.809017 0
    outer loop
      vertex -8.02957 8.91774 0
      vertex -8.02957 8.91774 88
      vertex -6 10.3923 0
    endloop
  endfacet
  facet normal -0.587785 0.809017 0
    outer loop
      vertex -6 10.3923 0
      vertex -8.02957 8.91774 88
      vertex -6 10.3923 88
    endloop
  endfacet
  facet normal -0.743145 0.669131 0
    outer loop
      vertex -9.7082 7.05342 0
      vertex -9.7082 7.05342 88
      vertex -8.02957 8.91774 0
    endloop
  endfacet
  facet normal -0.743145 0.669131 0
    outer loop
      vertex -8.02957 8.91774 0
      vertex -9.7082 7.05342 88
      vertex -8.02957 8.91774 88
    endloop
  endfacet
  facet normal -0.866025 0.5 0
    outer loop
      vertex -10.9625 4.88084 0
      vertex -10.9625 4.88084 88
      vertex -9.7082 7.05342 0
    endloop
  endfacet
  facet normal -0.866025 0.5 0
    outer loop
      vertex -9.7082 7.05342 0
      vertex -10.9625 4.88084 88
      vertex -9.7082 7.05342 88
    endloop
  endfacet
  facet normal 0.62349 -0.781831 0
    outer loop
      vertex -0.445042 1.94986 0
      vertex -0.445042 1.94986 2
      vertex -1.80194 0.867767 2
    endloop
  endfacet
  facet normal 0.62349 -0.781831 0
    outer loop
      vertex -1.80194 0.867767 0
      vertex -0.445042 1.94986 0
      vertex -1.80194 0.867767 2
    endloop
  endfacet
  facet normal 1 0 0
    outer loop
      vertex -1.80194 0.867767 0
      vertex -1.80194 0.867767 2
      vertex -1.80194 -0.867767 2
    endloop
  endfacet
  facet normal 1 0 0
    outer loop
      vertex -1.80194 -0.867767 0
      vertex -1.80194 0.867767 0
      vertex -1.80194 -0.867767 2
    endloop
  endfacet
  facet normal -0.222521 -0.974928 0
    outer loop
      vertex 1.24698 1.56366 0
      vertex 1.24698 1.56366 2
      vertex -0.445042 1.94986 2
    endloop
  endfacet
  facet normal -0.222521 -0.974928 0
    outer loop
      vertex -0.445042 1.94986 0
      vertex 1.24698 1.56366 0
      vertex -0.445042 1.94986 2
    endloop
  endfacet
  facet normal -0.900969 -0.433884 0
    outer loop
      vertex 2 0 2
      vertex 1.24698 1.56366 2
      vertex 2 0 0
    endloop
  endfacet
  facet normal -0.900969 -0.433884 0
    outer loop
      vertex 2 0 0
      vertex 1.24698 1.56366 2
      vertex 1.24698 1.56366 0
    endloop
  endfacet
  facet normal -0.900969 0.433884 0
    outer loop
      vertex 2 0 2
      vertex 2 0 0
      vertex 1.24698 -1.56366 2
    endloop
  endfacet
  facet normal -0.900969 0.433884 0
    outer loop
      vertex 1.24698 -1.56366 2
      vertex 2 0 0
      vertex 1.24698 -1.56366 0
    endloop
  endfacet
  facet normal -0.222521 0.974928 0
    outer loop
      vertex 1.24698 -1.56366 2
      vertex 1.24698 -1.56366 0
      vertex -0.445042 -1.94986 2
    endloop
  endfacet
  facet normal -0.222521 0.974928 0
    outer loop
      vertex -0.445042 -1.94986 2
      vertex 1.24698 -1.56366 0
      vertex -0.445042 -1.94986 0
    endloop
  endfacet
  facet normal 0.62349 0.781831 0
    outer loop
      vertex -0.445042 -1.94986 2
      vertex -0.445042 -1.94986 0
      vertex -1.80194 -0.867767 2
    endloop
  endfacet
  facet normal 0.62349 0.781831 0
    outer loop
      vertex -1.80194 -0.867767 2
      vertex -0.445042 -1.94986 0
      vertex -1.80194 -0.867767 0
    endloop
  endfacet
  facet normal -0.674343 0.219107 -0.705162
    outer loop
      vertex -12.7896 5.69431 90
      vertex -10.9625 4.88084 88
      vertex -11.7394 2.5 88.0032
    endloop
  endfacet
  facet normal -0.674343 0.219107 -0.705162
    outer loop
      vertex -11.7394 2.5 88.0032
      vertex -10.9625 4.88084 88
      vertex -11.7361 2.5 88
    endloop
  endfacet
  facet normal -0.614052 0.354523 -0.705162
    outer loop
      vertex -10.9625 4.88084 88
      vertex -11.3262 8.22899 90
      vertex -9.7082 7.05342 88
    endloop
  endfacet
  facet normal -0.614052 0.354523 -0.705162
    outer loop
      vertex -10.9625 4.88084 88
      vertex -12.7896 5.69431 90
      vertex -11.3262 8.22899 90
    endloop
  endfacet
  facet normal -0.705162 0.0741156 -0.705162
    outer loop
      vertex -13.455 2.5 89.7178
      vertex -13.7372 2.5 90
      vertex -13.6941 2.91076 90
    endloop
  endfacet
  facet normal -0.705162 0.0741156 -0.705162
    outer loop
      vertex -13.455 2.5 89.7178
      vertex -13.6941 2.91076 90
      vertex -11.7616 2.5 88.0243
    endloop
  endfacet
  facet normal -0.705162 0.0741156 0.705162
    outer loop
      vertex -13.6941 2.91076 90
      vertex -13.7372 2.5 90
      vertex -11.7616 2.5 91.9757
    endloop
  endfacet
  facet normal -0.674343 0.219107 0.705162
    outer loop
      vertex -10.9625 4.88084 92
      vertex -13.6941 2.91076 90
      vertex -11.7616 2.5 91.9757
    endloop
  endfacet
  facet normal -0.674343 0.219107 0.705162
    outer loop
      vertex -11.7361 2.5 92
      vertex -10.9625 4.88084 92
      vertex -11.7616 2.5 91.9757
    endloop
  endfacet
  facet normal 0 0 1
    outer loop
      vertex -10.9625 4.88084 92
      vertex -11.7361 2.5 92
      vertex -9.64472 2.5 92
    endloop
  endfacet
  facet normal 0 0 1
    outer loop
      vertex -8.09017 5.87785 92
      vertex -10.9625 4.88084 92
      vertex -9.13546 4.06737 92
    endloop
  endfacet
  facet normal 0 0 1
    outer loop
      vertex -9.13546 4.06737 92
      vertex -10.9625 4.88084 92
      vertex -9.64472 2.5 92
    endloop
  endfacet
  facet normal 0 0 1
    outer loop
      vertex -6.69131 7.43145 92
      vertex -10.9625 4.88084 92
      vertex -8.09017 5.87785 92
    endloop
  endfacet
  facet normal 0 0 1
    outer loop
      vertex -5 8.66025 92
      vertex -10.9625 4.88084 92
      vertex -6.69131 7.43145 92
    endloop
  endfacet
  facet normal 0 0 1
    outer loop
      vertex -1.25434 11.9343 92
      vertex -10.9625 4.88084 92
      vertex -5 8.66025 92
    endloop
  endfacet
  facet normal 0 0 1
    outer loop
      vertex 1.25434 11.9343 92
      vertex -5 8.66025 92
      vertex -3.09017 9.51056 92
    endloop
  endfacet
  facet normal 0 0 1
    outer loop
      vertex 3.7082 11.4127 92
      vertex -3.09017 9.51056 92
      vertex -1.04529 9.94522 92
    endloop
  endfacet
  facet normal 0 0 1
    outer loop
      vertex 6 10.3923 92
      vertex -1.04529 9.94522 92
      vertex 1.04529 9.94522 92
    endloop
  endfacet
  facet normal 0 0 1
    outer loop
      vertex 8.02957 8.91774 92
      vertex 1.04529 9.94522 92
      vertex 3.09017 9.51056 92
    endloop
  endfacet
  facet normal 0 0 1
    outer loop
      vertex 9.7082 7.05342 92
      vertex 3.09017 9.51056 92
      vertex 5 8.66025 92
    endloop
  endfacet
  facet normal 0 0 1
    outer loop
      vertex 10.9625 4.88084 92
      vertex 5 8.66025 92
      vertex 6.69131 7.43145 92
    endloop
  endfacet
  facet normal 0 0 1
    outer loop
      vertex 11.7361 2.5 92
      vertex 6.69131 7.43145 92
      vertex 8.09017 5.87785 92
    endloop
  endfacet
  facet normal 0 0 1
    outer loop
      vertex 11.7361 2.5 92
      vertex 8.09017 5.87785 92
      vertex 9.13546 4.06737 92
    endloop
  endfacet
  facet normal 0 0 1
    outer loop
      vertex 11.7361 2.5 92
      vertex 9.13546 4.06737 92
      vertex 9.64472 2.5 92
    endloop
  endfacet
  facet normal 0 0 1
    outer loop
      vertex 10.9625 4.88084 92
      vertex 6.69131 7.43145 92
      vertex 11.7361 2.5 92
    endloop
  endfacet
  facet normal 0 0 1
    outer loop
      vertex 9.7082 7.05342 92
      vertex 5 8.66025 92
      vertex 10.9625 4.88084 92
    endloop
  endfacet
  facet normal 0 0 1
    outer loop
      vertex 8.02957 8.91774 92
      vertex 3.09017 9.51056 92
      vertex 9.7082 7.05342 92
    endloop
  endfacet
  facet normal 0 0 1
    outer loop
      vertex 6 10.3923 92
      vertex 1.04529 9.94522 92
      vertex 8.02957 8.91774 92
    endloop
  endfacet
  facet normal 0 0 1
    outer loop
      vertex 3.7082 11.4127 92
      vertex -1.04529 9.94522 92
      vertex 6 10.3923 92
    endloop
  endfacet
  facet normal 0 0 1
    outer loop
      vertex 1.25434 11.9343 92
      vertex -3.09017 9.51056 92
      vertex 3.7082 11.4127 92
    endloop
  endfacet
  facet normal 0 0 1
    outer loop
      vertex -1.25434 11.9343 92
      vertex -5 8.66025 92
      vertex 1.25434 11.9343 92
    endloop
  endfacet
  facet normal 0 0 1
    outer loop
      vertex -3.7082 11.4127 92
      vertex -10.9625 4.88084 92
      vertex -1.25434 11.9343 92
    endloop
  endfacet
  facet normal 0 0 1
    outer loop
      vertex -6 10.3923 92
      vertex -10.9625 4.88084 92
      vertex -3.7082 11.4127 92
    endloop
  endfacet
  facet normal 0 0 1
    outer loop
      vertex -8.02957 8.91774 92
      vertex -10.9625 4.88084 92
      vertex -6 10.3923 92
    endloop
  endfacet
  facet normal 0 0 1
    outer loop
      vertex -9.7082 7.05342 92
      vertex -10.9625 4.88084 92
      vertex -8.02957 8.91774 92
    endloop
  endfacet
  facet normal -0.674343 0.219107 -0.705162
    outer loop
      vertex -13.6941 2.91076 90
      vertex -12.7896 5.69431 90
      vertex -11.7616 2.5 88.0243
    endloop
  endfacet
  facet normal -0.674343 0.219107 -0.705162
    outer loop
      vertex -11.7616 2.5 88.0243
      vertex -12.7896 5.69431 90
      vertex -11.7394 2.5 88.0032
    endloop
  endfacet
  facet normal 0.866025 -0.5 0
    outer loop
      vertex -8.09017 5.87785 2
      vertex -8.09017 5.87785 92
      vertex -9.13546 4.06737 92
    endloop
  endfacet
  facet normal 0.866025 -0.5 0
    outer loop
      vertex -9.13546 4.06737 2
      vertex -8.09017 5.87785 2
      vertex -9.13546 4.06737 92
    endloop
  endfacet
  facet normal 0.743145 -0.669131 0
    outer loop
      vertex -6.69131 7.43145 2
      vertex -6.69131 7.43145 92
      vertex -8.09017 5.87785 92
    endloop
  endfacet
  facet normal 0.743145 -0.669131 0
    outer loop
      vertex -8.09017 5.87785 2
      vertex -6.69131 7.43145 2
      vertex -8.09017 5.87785 92
    endloop
  endfacet
  facet normal 0.587785 -0.809017 0
    outer loop
      vertex -5 8.66025 2
      vertex -5 8.66025 92
      vertex -6.69131 7.43145 92
    endloop
  endfacet
  facet normal 0.587785 -0.809017 0
    outer loop
      vertex -6.69131 7.43145 2
      vertex -5 8.66025 2
      vertex -6.69131 7.43145 92
    endloop
  endfacet
  facet normal 0.406737 -0.913545 0
    outer loop
      vertex -3.09017 9.51056 2
      vertex -3.09017 9.51056 92
      vertex -5 8.66025 92
    endloop
  endfacet
  facet normal 0.406737 -0.913545 0
    outer loop
      vertex -5 8.66025 2
      vertex -3.09017 9.51056 2
      vertex -5 8.66025 92
    endloop
  endfacet
  facet normal 0.207912 -0.978148 0
    outer loop
      vertex -1.04529 9.94522 2
      vertex -1.04529 9.94522 92
      vertex -3.09017 9.51056 92
    endloop
  endfacet
  facet normal 0.207912 -0.978148 0
    outer loop
      vertex -3.09017 9.51056 2
      vertex -1.04529 9.94522 2
      vertex -3.09017 9.51056 92
    endloop
  endfacet
  facet normal 0 -1 0
    outer loop
      vertex 1.04529 9.94522 2
      vertex 1.04529 9.94522 92
      vertex -1.04529 9.94522 92
    endloop
  endfacet
  facet normal 0 -1 0
    outer loop
      vertex -1.04529 9.94522 2
      vertex 1.04529 9.94522 2
      vertex -1.04529 9.94522 92
    endloop
  endfacet
  facet normal -0.207912 -0.978148 0
    outer loop
      vertex 3.09017 9.51056 2
      vertex 3.09017 9.51056 92
      vertex 1.04529 9.94522 92
    endloop
  endfacet
  facet normal -0.207912 -0.978148 0
    outer loop
      vertex 1.04529 9.94522 2
      vertex 3.09017 9.51056 2
      vertex 1.04529 9.94522 92
    endloop
  endfacet
  facet normal -0.406737 -0.913545 0
    outer loop
      vertex 5 8.66025 2
      vertex 5 8.66025 92
      vertex 3.09017 9.51056 92
    endloop
  endfacet
  facet normal -0.406737 -0.913545 0
    outer loop
      vertex 3.09017 9.51056 2
      vertex 5 8.66025 2
      vertex 3.09017 9.51056 92
    endloop
  endfacet
  facet normal -0.587785 -0.809017 0
    outer loop
      vertex 6.69131 7.43145 2
      vertex 6.69131 7.43145 92
      vertex 5 8.66025 92
    endloop
  endfacet
  facet normal -0.587785 -0.809017 0
    outer loop
      vertex 5 8.66025 2
      vertex 6.69131 7.43145 2
      vertex 5 8.66025 92
    endloop
  endfacet
  facet normal -0.743145 -0.669131 0
    outer loop
      vertex 8.09017 5.87785 92
      vertex 6.69131 7.43145 92
      vertex 8.09017 5.87785 2
    endloop
  endfacet
  facet normal -0.743145 -0.669131 0
    outer loop
      vertex 8.09017 5.87785 2
      vertex 6.69131 7.43145 92
      vertex 6.69131 7.43145 2
    endloop
  endfacet
  facet normal -0.866025 -0.5 0
    outer loop
      vertex 9.13546 4.06737 92
      vertex 8.09017 5.87785 92
      vertex 9.13546 4.06737 2
    endloop
  endfacet
  facet normal -0.866025 -0.5 0
    outer loop
      vertex 9.13546 4.06737 2
      vertex 8.09017 5.87785 92
      vertex 8.09017 5.87785 2
    endloop
  endfacet
  facet normal -0.951057 -0.309017 0
    outer loop
      vertex 9.78148 2.07912 44
      vertex 9.64472 2.5 44
      vertex 9.78148 2.07912 2
    endloop
  endfacet
  facet normal -0.951057 -0.309017 0
    outer loop
      vertex 9.13546 4.06737 92
      vertex 9.64472 2.5 44
      vertex 9.64472 2.5 92
    endloop
  endfacet
  facet normal -0.951057 -0.309017 0
    outer loop
      vertex 9.78148 2.07912 2
      vertex 9.64472 2.5 44
      vertex 9.13546 4.06737 92
    endloop
  endfacet
  facet normal -0.951057 -0.309017 0
    outer loop
      vertex 9.78148 2.07912 2
      vertex 9.13546 4.06737 92
      vertex 9.13546 4.06737 2
    endloop
  endfacet
  facet normal -0.994522 -0.104528 0
    outer loop
      vertex 10 0 44
      vertex 9.78148 2.07912 44
      vertex 10 0 2
    endloop
  endfacet
  facet normal -0.994522 -0.104528 0
    outer loop
      vertex 10 0 2
      vertex 9.78148 2.07912 44
      vertex 9.78148 2.07912 2
    endloop
  endfacet
  facet normal -0.994522 0.104528 0
    outer loop
      vertex 10 0 44
      vertex 10 0 2
      vertex 9.78148 -2.07912 44
    endloop
  endfacet
  facet normal -0.994522 0.104528 0
    outer loop
      vertex 9.78148 -2.07912 44
      vertex 10 0 2
      vertex 9.78148 -2.07912 2
    endloop
  endfacet
  facet normal 0 0 1
    outer loop
      vertex 11.7361 -2.5 44
      vertex 11.7378 -2.49494 44
      vertex 12 0 44
    endloop
  endfacet
  facet normal 0 0 1
    outer loop
      vertex 11.7361 2.5 44
      vertex 11.7361 -2.5 44
      vertex 11.7378 2.49494 44
    endloop
  endfacet
  facet normal 0 0 1
    outer loop
      vertex 11.7378 2.49494 44
      vertex 11.7361 -2.5 44
      vertex 12 0 44
    endloop
  endfacet
  facet normal 0 0 1
    outer loop
      vertex 9.64472 2.5 44
      vertex 11.7361 -2.5 44
      vertex 11.7361 2.5 44
    endloop
  endfacet
  facet normal 0 0 1
    outer loop
      vertex 9.78148 2.07912 44
      vertex 11.7361 -2.5 44
      vertex 9.64472 2.5 44
    endloop
  endfacet
  facet normal 0 0 1
    outer loop
      vertex 10 0 44
      vertex 11.7361 -2.5 44
      vertex 9.78148 2.07912 44
    endloop
  endfacet
  facet normal 0 0 1
    outer loop
      vertex 9.78148 -2.07912 44
      vertex 11.7361 -2.5 44
      vertex 10 0 44
    endloop
  endfacet
  facet normal 0 0 1
    outer loop
      vertex 9.64472 -2.5 44
      vertex 11.7361 -2.5 44
      vertex 9.78148 -2.07912 44
    endloop
  endfacet
  facet normal 0.674343 -0.219107 -0.705162
    outer loop
      vertex 10.9625 -4.88084 88
      vertex 11.7361 -2.5 88
      vertex 12.7896 -5.69431 90
    endloop
  endfacet
  facet normal 0.674343 -0.219107 -0.705162
    outer loop
      vertex 12.7896 -5.69431 90
      vertex 11.7361 -2.5 88
      vertex 11.7394 -2.5 88.0032
    endloop
  endfacet
  facet normal 0.674343 -0.219107 -0.705162
    outer loop
      vertex 11.7394 -2.5 88.0032
      vertex 11.7616 -2.5 88.0243
      vertex 12.7896 -5.69431 90
    endloop
  endfacet
  facet normal 0.674343 -0.219107 -0.705162
    outer loop
      vertex 12.7896 -5.69431 90
      vertex 11.7616 -2.5 88.0243
      vertex 13.6941 -2.91076 90
    endloop
  endfacet
  facet normal 0.705162 -0.0741156 -0.705162
    outer loop
      vertex 13.6941 -2.91076 90
      vertex 11.7616 -2.5 88.0243
      vertex 13.455 -2.5 89.7178
    endloop
  endfacet
  facet normal 0.705162 -0.0741156 -0.705162
    outer loop
      vertex 13.6941 -2.91076 90
      vertex 13.455 -2.5 89.7178
      vertex 13.7372 -2.5 90
    endloop
  endfacet
  facet normal 0.705162 -0.0741156 0.705162
    outer loop
      vertex 13.7372 -2.5 90
      vertex 11.7616 -2.5 91.9757
      vertex 13.6941 -2.91076 90
    endloop
  endfacet
  facet normal 0.614052 -0.354523 -0.705162
    outer loop
      vertex 11.3262 -8.22899 90
      vertex 10.9625 -4.88084 88
      vertex 12.7896 -5.69431 90
    endloop
  endfacet
  facet normal 0.614052 -0.354523 -0.705162
    outer loop
      vertex 11.3262 -8.22899 90
      vertex 9.7082 -7.05342 88
      vertex 10.9625 -4.88084 88
    endloop
  endfacet
  facet normal 0.526924 -0.474445 -0.705162
    outer loop
      vertex 11.3262 -8.22899 90
      vertex 9.36783 -10.404 90
      vertex 9.7082 -7.05342 88
    endloop
  endfacet
  facet normal 0.526924 -0.474445 -0.705162
    outer loop
      vertex 9.36783 -10.404 90
      vertex 8.02957 -8.91774 88
      vertex 9.7082 -7.05342 88
    endloop
  endfacet
  facet normal 0.416767 -0.57363 -0.705162
    outer loop
      vertex 9.36783 -10.404 90
      vertex 7 -12.1244 90
      vertex 8.02957 -8.91774 88
    endloop
  endfacet
  facet normal 0.416767 -0.57363 -0.705162
    outer loop
      vertex 7 -12.1244 90
      vertex 6 -10.3923 88
      vertex 8.02957 -8.91774 88
    endloop
  endfacet
  facet normal 0.288395 -0.647746 -0.705162
    outer loop
      vertex 7 -12.1244 90
      vertex 4.32624 -13.3148 90
      vertex 6 -10.3923 88
    endloop
  endfacet
  facet normal 0.288395 -0.647746 -0.705162
    outer loop
      vertex 4.32624 -13.3148 90
      vertex 3.7082 -11.4127 88
      vertex 6 -10.3923 88
    endloop
  endfacet
  facet normal 0.147419 -0.693552 -0.705162
    outer loop
      vertex 4.32624 -13.3148 90
      vertex 1.4634 -13.9233 90
      vertex 3.7082 -11.4127 88
    endloop
  endfacet
  facet normal 0 -0.709046 -0.705162
    outer loop
      vertex 1.4634 -13.9233 90
      vertex -1.4634 -13.9233 90
      vertex -1.25434 -11.9343 88
    endloop
  endfacet
  facet normal 0 -0.709046 -0.705162
    outer loop
      vertex 1.25434 -11.9343 88
      vertex 1.4634 -13.9233 90
      vertex -1.25434 -11.9343 88
    endloop
  endfacet
  facet normal 0.147419 -0.693552 -0.705162
    outer loop
      vertex 1.4634 -13.9233 90
      vertex 1.25434 -11.9343 88
      vertex 3.7082 -11.4127 88
    endloop
  endfacet
  facet normal -0.147419 -0.693552 -0.705162
    outer loop
      vertex -1.4634 -13.9233 90
      vertex -4.32624 -13.3148 90
      vertex -1.25434 -11.9343 88
    endloop
  endfacet
  facet normal -0.147419 -0.693552 -0.705162
    outer loop
      vertex -1.25434 -11.9343 88
      vertex -4.32624 -13.3148 90
      vertex -3.7082 -11.4127 88
    endloop
  endfacet
  facet normal -0.288395 -0.647746 -0.705162
    outer loop
      vertex -4.32624 -13.3148 90
      vertex -7 -12.1244 90
      vertex -3.7082 -11.4127 88
    endloop
  endfacet
  facet normal -0.288395 -0.647746 -0.705162
    outer loop
      vertex -3.7082 -11.4127 88
      vertex -7 -12.1244 90
      vertex -6 -10.3923 88
    endloop
  endfacet
  facet normal -0.416767 -0.57363 -0.705162
    outer loop
      vertex -7 -12.1244 90
      vertex -9.36783 -10.404 90
      vertex -6 -10.3923 88
    endloop
  endfacet
  facet normal -0.416767 -0.57363 -0.705162
    outer loop
      vertex -6 -10.3923 88
      vertex -9.36783 -10.404 90
      vertex -8.02957 -8.91774 88
    endloop
  endfacet
  facet normal 0 -1 0
    outer loop
      vertex 13.7372 2.5 90
      vertex 11.7361 2.5 88
      vertex 11.7616 2.5 88.0243
    endloop
  endfacet
  facet normal 0 -1 0
    outer loop
      vertex 13.455 2.5 90.2822
      vertex 11.7616 2.5 91.9757
      vertex 11.7361 2.5 88
    endloop
  endfacet
  facet normal 0 -1 0
    outer loop
      vertex 11.7361 2.5 44
      vertex 11.7361 2.5 88
      vertex 9.64472 2.5 92
    endloop
  endfacet
  facet normal 0 -1 0
    outer loop
      vertex 13.7372 2.5 90
      vertex 13.455 2.5 90.2822
      vertex 11.7361 2.5 88
    endloop
  endfacet
  facet normal 0 -1 0
    outer loop
      vertex 11.7616 2.5 91.9757
      vertex 11.7394 2.5 91.9968
      vertex 11.7361 2.5 88
    endloop
  endfacet
  facet normal 0 -1 0
    outer loop
      vertex 11.7394 2.5 91.9968
      vertex 11.7361 2.5 92
      vertex 11.7361 2.5 88
    endloop
  endfacet
  facet normal 0 -1 0
    outer loop
      vertex 11.7361 2.5 92
      vertex 9.64472 2.5 92
      vertex 11.7361 2.5 88
    endloop
  endfacet
  facet normal 0 -1 0
    outer loop
      vertex 9.64472 2.5 92
      vertex 9.64472 2.5 44
      vertex 11.7361 2.5 44
    endloop
  endfacet
  facet normal 0.674343 0.219107 -0.705162
    outer loop
      vertex 10.9625 4.88084 88
      vertex 13.6941 2.91076 90
      vertex 11.7361 2.5 88
    endloop
  endfacet
  facet normal 0.674343 0.219107 -0.705162
    outer loop
      vertex 11.7361 2.5 88
      vertex 13.6941 2.91076 90
      vertex 11.7616 2.5 88.0243
    endloop
  endfacet
  facet normal 0.614052 0.354523 -0.705162
    outer loop
      vertex 10.9625 4.88084 88
      vertex 9.7082 7.05342 88
      vertex 12.7896 5.69431 90
    endloop
  endfacet
  facet normal 0.674343 0.219107 -0.705162
    outer loop
      vertex 13.6941 2.91076 90
      vertex 10.9625 4.88084 88
      vertex 12.7896 5.69431 90
    endloop
  endfacet
  facet normal 0.526924 0.474445 -0.705162
    outer loop
      vertex 9.7082 7.05342 88
      vertex 8.02957 8.91774 88
      vertex 11.3262 8.22899 90
    endloop
  endfacet
  facet normal 0.614052 0.354523 -0.705162
    outer loop
      vertex 12.7896 5.69431 90
      vertex 9.7082 7.05342 88
      vertex 11.3262 8.22899 90
    endloop
  endfacet
  facet normal 0.416767 0.57363 -0.705162
    outer loop
      vertex 8.02957 8.91774 88
      vertex 6 10.3923 88
      vertex 9.36783 10.404 90
    endloop
  endfacet
  facet normal 0.526924 0.474445 -0.705162
    outer loop
      vertex 11.3262 8.22899 90
      vertex 8.02957 8.91774 88
      vertex 9.36783 10.404 90
    endloop
  endfacet
  facet normal 0.288395 0.647746 -0.705162
    outer loop
      vertex 6 10.3923 88
      vertex 3.7082 11.4127 88
      vertex 7 12.1244 90
    endloop
  endfacet
  facet normal 0.416767 0.57363 -0.705162
    outer loop
      vertex 9.36783 10.404 90
      vertex 6 10.3923 88
      vertex 7 12.1244 90
    endloop
  endfacet
  facet normal 0.147419 0.693552 -0.705162
    outer loop
      vertex 3.7082 11.4127 88
      vertex 1.25434 11.9343 88
      vertex 4.32624 13.3148 90
    endloop
  endfacet
  facet normal 0.288395 0.647746 -0.705162
    outer loop
      vertex 7 12.1244 90
      vertex 3.7082 11.4127 88
      vertex 4.32624 13.3148 90
    endloop
  endfacet
  facet normal 0 0.709046 -0.705162
    outer loop
      vertex -1.4634 13.9233 90
      vertex 1.4634 13.9233 90
      vertex -1.25434 11.9343 88
    endloop
  endfacet
  facet normal 0 0.709046 -0.705162
    outer loop
      vertex -1.25434 11.9343 88
      vertex 1.4634 13.9233 90
      vertex 1.25434 11.9343 88
    endloop
  endfacet
  facet normal 0.147419 0.693552 -0.705162
    outer loop
      vertex 4.32624 13.3148 90
      vertex 1.25434 11.9343 88
      vertex 1.4634 13.9233 90
    endloop
  endfacet
  facet normal -0.147419 0.693552 -0.705162
    outer loop
      vertex -1.25434 11.9343 88
      vertex -3.7082 11.4127 88
      vertex -1.4634 13.9233 90
    endloop
  endfacet
  facet normal -0.288395 0.647746 -0.705162
    outer loop
      vertex -3.7082 11.4127 88
      vertex -6 10.3923 88
      vertex -4.32624 13.3148 90
    endloop
  endfacet
  facet normal -0.147419 0.693552 -0.705162
    outer loop
      vertex -3.7082 11.4127 88
      vertex -4.32624 13.3148 90
      vertex -1.4634 13.9233 90
    endloop
  endfacet
  facet normal -0.416767 0.57363 -0.705162
    outer loop
      vertex -6 10.3923 88
      vertex -8.02957 8.91774 88
      vertex -7 12.1244 90
    endloop
  endfacet
  facet normal -0.288395 0.647746 -0.705162
    outer loop
      vertex -6 10.3923 88
      vertex -7 12.1244 90
      vertex -4.32624 13.3148 90
    endloop
  endfacet
  facet normal -0.526924 0.474445 -0.705162
    outer loop
      vertex -8.02957 8.91774 88
      vertex -9.7082 7.05342 88
      vertex -9.36783 10.404 90
    endloop
  endfacet
  facet normal -0.416767 0.57363 -0.705162
    outer loop
      vertex -8.02957 8.91774 88
      vertex -9.36783 10.404 90
      vertex -7 12.1244 90
    endloop
  endfacet
  facet normal -0.526924 0.474445 -0.705162
    outer loop
      vertex -9.7082 7.05342 88
      vertex -11.3262 8.22899 90
      vertex -9.36783 10.404 90
    endloop
  endfacet
  facet normal -0.674343 0.219107 0.705162
    outer loop
      vertex -12.7896 5.69431 90
      vertex -13.6941 2.91076 90
      vertex -10.9625 4.88084 92
    endloop
  endfacet
  facet normal -0.614052 0.354523 0.705162
    outer loop
      vertex -11.3262 8.22899 90
      vertex -12.7896 5.69431 90
      vertex -9.7082 7.05342 92
    endloop
  endfacet
  facet normal -0.614052 0.354523 0.705162
    outer loop
      vertex -9.7082 7.05342 92
      vertex -12.7896 5.69431 90
      vertex -10.9625 4.88084 92
    endloop
  endfacet
  facet normal -0.526924 0.474445 0.705162
    outer loop
      vertex -9.36783 10.404 90
      vertex -11.3262 8.22899 90
      vertex -8.02957 8.91774 92
    endloop
  endfacet
  facet normal -0.526924 0.474445 0.705162
    outer loop
      vertex -8.02957 8.91774 92
      vertex -11.3262 8.22899 90
      vertex -9.7082 7.05342 92
    endloop
  endfacet
  facet normal -0.416767 0.57363 0.705162
    outer loop
      vertex -6 10.3923 92
      vertex -9.36783 10.404 90
      vertex -8.02957 8.91774 92
    endloop
  endfacet
  facet normal -0.416767 0.57363 0.705162
    outer loop
      vertex -7 12.1244 90
      vertex -9.36783 10.404 90
      vertex -6 10.3923 92
    endloop
  endfacet
  facet normal -0.288395 0.647746 0.705162
    outer loop
      vertex -3.7082 11.4127 92
      vertex -7 12.1244 90
      vertex -6 10.3923 92
    endloop
  endfacet
  facet normal -0.288395 0.647746 0.705162
    outer loop
      vertex -4.32624 13.3148 90
      vertex -7 12.1244 90
      vertex -3.7082 11.4127 92
    endloop
  endfacet
  facet normal -0.147419 0.693552 0.705162
    outer loop
      vertex -1.25434 11.9343 92
      vertex -4.32624 13.3148 90
      vertex -3.7082 11.4127 92
    endloop
  endfacet
  facet normal -0.147419 0.693552 0.705162
    outer loop
      vertex -1.4634 13.9233 90
      vertex -4.32624 13.3148 90
      vertex -1.25434 11.9343 92
    endloop
  endfacet
  facet normal 0 0.709046 0.705162
    outer loop
      vertex -1.4634 13.9233 90
      vertex -1.25434 11.9343 92
      vertex 1.4634 13.9233 90
    endloop
  endfacet
  facet normal 0 0.709046 0.705162
    outer loop
      vertex 1.4634 13.9233 90
      vertex -1.25434 11.9343 92
      vertex 1.25434 11.9343 92
    endloop
  endfacet
  facet normal 0.147419 0.693552 0.705162
    outer loop
      vertex 1.4634 13.9233 90
      vertex 1.25434 11.9343 92
      vertex 3.7082 11.4127 92
    endloop
  endfacet
  facet normal 0.147419 0.693552 0.705162
    outer loop
      vertex 4.32624 13.3148 90
      vertex 1.4634 13.9233 90
      vertex 3.7082 11.4127 92
    endloop
  endfacet
  facet normal 0.288395 0.647746 0.705162
    outer loop
      vertex 4.32624 13.3148 90
      vertex 3.7082 11.4127 92
      vertex 6 10.3923 92
    endloop
  endfacet
  facet normal 0.288395 0.647746 0.705162
    outer loop
      vertex 7 12.1244 90
      vertex 4.32624 13.3148 90
      vertex 6 10.3923 92
    endloop
  endfacet
  facet normal 0.416767 0.57363 0.705162
    outer loop
      vertex 7 12.1244 90
      vertex 6 10.3923 92
      vertex 8.02957 8.91774 92
    endloop
  endfacet
  facet normal 0.416767 0.57363 0.705162
    outer loop
      vertex 9.36783 10.404 90
      vertex 7 12.1244 90
      vertex 8.02957 8.91774 92
    endloop
  endfacet
  facet normal 0.526924 0.474445 0.705162
    outer loop
      vertex 9.36783 10.404 90
      vertex 8.02957 8.91774 92
      vertex 9.7082 7.05342 92
    endloop
  endfacet
  facet normal 0.526924 0.474445 0.705162
    outer loop
      vertex 11.3262 8.22899 90
      vertex 9.36783 10.404 90
      vertex 9.7082 7.05342 92
    endloop
  endfacet
  facet normal 0.614052 0.354523 0.705162
    outer loop
      vertex 11.3262 8.22899 90
      vertex 9.7082 7.05342 92
      vertex 10.9625 4.88084 92
    endloop
  endfacet
  facet normal 0.614052 0.354523 0.705162
    outer loop
      vertex 11.3262 8.22899 90
      vertex 10.9625 4.88084 92
      vertex 12.7896 5.69431 90
    endloop
  endfacet
  facet normal 0.674343 0.219107 0.705162
    outer loop
      vertex 12.7896 5.69431 90
      vertex 10.9625 4.88084 92
      vertex 11.7361 2.5 92
    endloop
  endfacet
  facet normal 0.674343 0.219107 0.705162
    outer loop
      vertex 11.7394 2.5 91.9968
      vertex 12.7896 5.69431 90
      vertex 11.7361 2.5 92
    endloop
  endfacet
  facet normal 0.674343 0.219107 0.705162
    outer loop
      vertex 12.7896 5.69431 90
      vertex 11.7394 2.5 91.9968
      vertex 11.7616 2.5 91.9757
    endloop
  endfacet
  facet normal 0.674343 0.219107 0.705162
    outer loop
      vertex 13.6941 2.91076 90
      vertex 12.7896 5.69431 90
      vertex 11.7616 2.5 91.9757
    endloop
  endfacet
  facet normal 0.705162 0.0741156 0.705162
    outer loop
      vertex 13.6941 2.91076 90
      vertex 11.7616 2.5 91.9757
      vertex 13.455 2.5 90.2822
    endloop
  endfacet
  facet normal 0.705162 0.0741156 0.705162
    outer loop
      vertex 13.6941 2.91076 90
      vertex 13.455 2.5 90.2822
      vertex 13.7372 2.5 90
    endloop
  endfacet
  facet normal 0.705162 0.0741156 -0.705162
    outer loop
      vertex 13.7372 2.5 90
      vertex 11.7616 2.5 88.0243
      vertex 13.6941 2.91076 90
    endloop
  endfacet
endsolid OpenSCAD_Model
