solid OpenSCAD_Model
  facet normal 0.994522 0.104529 0
    outer loop
      vertex 50 0 15
      vertex 48.9074 10.3956 0
      vertex 48.9074 10.3956 15
    endloop
  endfacet
  facet normal 0.994522 0.104529 0
    outer loop
      vertex 48.9074 10.3956 0
      vertex 50 0 15
      vertex 50 0 0
    endloop
  endfacet
  facet normal -0.994522 0.104529 0
    outer loop
      vertex -50 0 0
      vertex -48.9074 10.3956 15
      vertex -48.9074 10.3956 0
    endloop
  endfacet
  facet normal -0.994522 0.104529 0
    outer loop
      vertex -48.9074 10.3956 15
      vertex -50 0 0
      vertex -50 0 15
    endloop
  endfacet
  facet normal 0 1 -0
    outer loop
      vertex 5.22642 49.7261 0
      vertex -5.22642 49.7261 15
      vertex 5.22642 49.7261 15
    endloop
  endfacet
  facet normal 0 1 0
    outer loop
      vertex -5.22642 49.7261 15
      vertex 5.22642 49.7261 0
      vertex -5.22642 49.7261 0
    endloop
  endfacet
  facet normal 0 -1 0
    outer loop
      vertex -5.22642 -49.7261 0
      vertex 5.22642 -49.7261 15
      vertex -5.22642 -49.7261 15
    endloop
  endfacet
  facet normal 0 -1 -0
    outer loop
      vertex 5.22642 -49.7261 15
      vertex -5.22642 -49.7261 0
      vertex 5.22642 -49.7261 0
    endloop
  endfacet
  facet normal 0.587785 0.809017 -0
    outer loop
      vertex 33.4565 37.1572 0
      vertex 25 43.3013 15
      vertex 33.4565 37.1572 15
    endloop
  endfacet
  facet normal 0.587785 0.809017 0
    outer loop
      vertex 25 43.3013 15
      vertex 33.4565 37.1572 0
      vertex 25 43.3013 0
    endloop
  endfacet
  facet normal -0.743145 0.669131 0
    outer loop
      vertex -40.4509 29.3893 0
      vertex -33.4565 37.1572 15
      vertex -33.4565 37.1572 0
    endloop
  endfacet
  facet normal -0.743145 0.669131 0
    outer loop
      vertex -33.4565 37.1572 15
      vertex -40.4509 29.3893 0
      vertex -40.4509 29.3893 15
    endloop
  endfacet
  facet normal -0.866025 0.5 0
    outer loop
      vertex -45.6773 20.3368 0
      vertex -40.4509 29.3893 15
      vertex -40.4509 29.3893 0
    endloop
  endfacet
  facet normal -0.866025 0.5 0
    outer loop
      vertex -40.4509 29.3893 15
      vertex -45.6773 20.3368 0
      vertex -45.6773 20.3368 15
    endloop
  endfacet
  facet normal -0.406737 0.913545 0
    outer loop
      vertex -15.4508 47.5528 0
      vertex -25 43.3013 15
      vertex -15.4508 47.5528 15
    endloop
  endfacet
  facet normal -0.406737 0.913545 0
    outer loop
      vertex -25 43.3013 15
      vertex -15.4508 47.5528 0
      vertex -25 43.3013 0
    endloop
  endfacet
  facet normal 0.866025 0.5 0
    outer loop
      vertex 45.6773 20.3368 15
      vertex 40.4509 29.3893 0
      vertex 40.4509 29.3893 15
    endloop
  endfacet
  facet normal 0.866025 0.5 0
    outer loop
      vertex 40.4509 29.3893 0
      vertex 45.6773 20.3368 15
      vertex 45.6773 20.3368 0
    endloop
  endfacet
  facet normal 0.951057 0.309017 0
    outer loop
      vertex 48.9074 10.3956 15
      vertex 45.6773 20.3368 0
      vertex 45.6773 20.3368 15
    endloop
  endfacet
  facet normal 0.951057 0.309017 0
    outer loop
      vertex 45.6773 20.3368 0
      vertex 48.9074 10.3956 15
      vertex 48.9074 10.3956 0
    endloop
  endfacet
  facet normal 0.743145 0.669131 0
    outer loop
      vertex 40.4509 29.3893 15
      vertex 33.4565 37.1572 0
      vertex 33.4565 37.1572 15
    endloop
  endfacet
  facet normal 0.743145 0.669131 0
    outer loop
      vertex 33.4565 37.1572 0
      vertex 40.4509 29.3893 15
      vertex 40.4509 29.3893 0
    endloop
  endfacet
  facet normal 0.207912 0.978148 -0
    outer loop
      vertex 15.4508 47.5528 0
      vertex 5.22642 49.7261 15
      vertex 15.4508 47.5528 15
    endloop
  endfacet
  facet normal 0.207912 0.978148 0
    outer loop
      vertex 5.22642 49.7261 15
      vertex 15.4508 47.5528 0
      vertex 5.22642 49.7261 0
    endloop
  endfacet
  facet normal 0.406737 0.913545 -0
    outer loop
      vertex 25 43.3013 0
      vertex 15.4508 47.5528 15
      vertex 25 43.3013 15
    endloop
  endfacet
  facet normal 0.406737 0.913545 0
    outer loop
      vertex 15.4508 47.5528 15
      vertex 25 43.3013 0
      vertex 15.4508 47.5528 0
    endloop
  endfacet
  facet normal -0.951057 0.309017 0
    outer loop
      vertex -48.9074 10.3956 0
      vertex -45.6773 20.3368 15
      vertex -45.6773 20.3368 0
    endloop
  endfacet
  facet normal -0.951057 0.309017 0
    outer loop
      vertex -45.6773 20.3368 15
      vertex -48.9074 10.3956 0
      vertex -48.9074 10.3956 15
    endloop
  endfacet
  facet normal 0 0 1
    outer loop
      vertex 27.6345 11.5 15
      vertex 11.5 0 15
      vertex 27.6345 -11.5 15
    endloop
  endfacet
  facet normal 0 0 1
    outer loop
      vertex 27.6345 11.5 15
      vertex 11.2487 2.39098 15
      vertex 11.5 0 15
    endloop
  endfacet
  facet normal 0 0 1
    outer loop
      vertex 27.6345 11.5 15
      vertex 10.5058 4.67747 15
      vertex 11.2487 2.39098 15
    endloop
  endfacet
  facet normal 0 0 1
    outer loop
      vertex 27.6345 11.5 15
      vertex 9.30369 6.75953 15
      vertex 10.5058 4.67747 15
    endloop
  endfacet
  facet normal 0 0 1
    outer loop
      vertex 27.6345 11.5 15
      vertex 7.695 8.54617 15
      vertex 9.30369 6.75953 15
    endloop
  endfacet
  facet normal 0 0 1
    outer loop
      vertex 27.6345 11.5 15
      vertex 5.75 9.95929 15
      vertex 7.695 8.54617 15
    endloop
  endfacet
  facet normal 0 0 1
    outer loop
      vertex 27.6345 11.5 15
      vertex 3.55369 10.9371 15
      vertex 5.75 9.95929 15
    endloop
  endfacet
  facet normal 0 0 1
    outer loop
      vertex 27.6345 11.5 15
      vertex 1.20208 11.437 15
      vertex 3.55369 10.9371 15
    endloop
  endfacet
  facet normal 0 0 1
    outer loop
      vertex 27.6345 11.5 15
      vertex -1.20208 11.437 15
      vertex 1.20208 11.437 15
    endloop
  endfacet
  facet normal 0 0 1
    outer loop
      vertex -11.2487 2.39098 15
      vertex -27.6345 11.5 15
      vertex -11.5 0 15
    endloop
  endfacet
  facet normal 0 0 1
    outer loop
      vertex -10.5058 4.67747 15
      vertex -27.6345 11.5 15
      vertex -11.2487 2.39098 15
    endloop
  endfacet
  facet normal 0 0 1
    outer loop
      vertex -9.30369 6.75953 15
      vertex -27.6345 11.5 15
      vertex -10.5058 4.67747 15
    endloop
  endfacet
  facet normal 0 0 1
    outer loop
      vertex -7.695 8.54617 15
      vertex -27.6345 11.5 15
      vertex -9.30369 6.75953 15
    endloop
  endfacet
  facet normal 0 0 1
    outer loop
      vertex -5.75 9.95929 15
      vertex -27.6345 11.5 15
      vertex -7.695 8.54617 15
    endloop
  endfacet
  facet normal 0 0 1
    outer loop
      vertex -3.55369 10.9371 15
      vertex -27.6345 11.5 15
      vertex -5.75 9.95929 15
    endloop
  endfacet
  facet normal 0 0 1
    outer loop
      vertex -1.20208 11.437 15
      vertex -27.6345 11.5 15
      vertex -3.55369 10.9371 15
    endloop
  endfacet
  facet normal -0 0 1
    outer loop
      vertex -27.6345 11.5 15
      vertex -1.20208 11.437 15
      vertex 27.6345 11.5 15
    endloop
  endfacet
  facet normal 0 0 1
    outer loop
      vertex 45.6773 -20.3368 15
      vertex 27.4064 -12.2021 15
      vertex 40.4509 -29.3893 15
    endloop
  endfacet
  facet normal -0 0 1
    outer loop
      vertex 24.2705 -17.6336 15
      vertex 40.4509 -29.3893 15
      vertex 27.4064 -12.2021 15
    endloop
  endfacet
  facet normal 0 0 1
    outer loop
      vertex 40.4509 -29.3893 15
      vertex 24.2705 -17.6336 15
      vertex 33.4565 -37.1572 15
    endloop
  endfacet
  facet normal -0 0 1
    outer loop
      vertex 20.0739 -22.2943 15
      vertex 33.4565 -37.1572 15
      vertex 24.2705 -17.6336 15
    endloop
  endfacet
  facet normal 0 0 1
    outer loop
      vertex 33.4565 -37.1572 15
      vertex 20.0739 -22.2943 15
      vertex 25 -43.3013 15
    endloop
  endfacet
  facet normal -0 0 1
    outer loop
      vertex 15 -25.9808 15
      vertex 25 -43.3013 15
      vertex 20.0739 -22.2943 15
    endloop
  endfacet
  facet normal 0 0 1
    outer loop
      vertex 25 -43.3013 15
      vertex 15 -25.9808 15
      vertex 15.4508 -47.5528 15
    endloop
  endfacet
  facet normal -0 0 1
    outer loop
      vertex 9.27051 -28.5317 15
      vertex 15.4508 -47.5528 15
      vertex 15 -25.9808 15
    endloop
  endfacet
  facet normal 0 0 1
    outer loop
      vertex 9.27051 -28.5317 15
      vertex 5.22642 -49.7261 15
      vertex 15.4508 -47.5528 15
    endloop
  endfacet
  facet normal -0 0 1
    outer loop
      vertex 3.13585 -29.8357 15
      vertex 5.22642 -49.7261 15
      vertex 9.27051 -28.5317 15
    endloop
  endfacet
  facet normal -0 0 1
    outer loop
      vertex -3.13585 -29.8357 15
      vertex 5.22642 -49.7261 15
      vertex 3.13585 -29.8357 15
    endloop
  endfacet
  facet normal 0 0 1
    outer loop
      vertex -3.13585 -29.8357 15
      vertex -5.22642 -49.7261 15
      vertex 5.22642 -49.7261 15
    endloop
  endfacet
  facet normal 0 0 1
    outer loop
      vertex -9.27051 -28.5317 15
      vertex -5.22642 -49.7261 15
      vertex -3.13585 -29.8357 15
    endloop
  endfacet
  facet normal 0 0 1
    outer loop
      vertex -15.4508 -47.5528 15
      vertex -9.27051 -28.5317 15
      vertex -15 -25.9808 15
    endloop
  endfacet
  facet normal 0 0 1
    outer loop
      vertex -9.27051 -28.5317 15
      vertex -15.4508 -47.5528 15
      vertex -5.22642 -49.7261 15
    endloop
  endfacet
  facet normal 0 0 1
    outer loop
      vertex -25 -43.3013 15
      vertex -15 -25.9808 15
      vertex -20.0739 -22.2943 15
    endloop
  endfacet
  facet normal 0 0 1
    outer loop
      vertex -33.4565 -37.1572 15
      vertex -20.0739 -22.2943 15
      vertex -24.2705 -17.6336 15
    endloop
  endfacet
  facet normal 0 0 1
    outer loop
      vertex -15 -25.9808 15
      vertex -25 -43.3013 15
      vertex -15.4508 -47.5528 15
    endloop
  endfacet
  facet normal 0 0 1
    outer loop
      vertex -40.4509 -29.3893 15
      vertex -24.2705 -17.6336 15
      vertex -27.4064 -12.2021 15
    endloop
  endfacet
  facet normal 0 0 1
    outer loop
      vertex -45.6773 -20.3368 15
      vertex -27.4064 -12.2021 15
      vertex -27.6345 -11.5 15
    endloop
  endfacet
  facet normal 0 0 1
    outer loop
      vertex -27.4064 12.2021 15
      vertex -45.6773 20.3368 15
      vertex -27.6345 11.5 15
    endloop
  endfacet
  facet normal 0 0 1
    outer loop
      vertex -20.0739 -22.2943 15
      vertex -33.4565 -37.1572 15
      vertex -25 -43.3013 15
    endloop
  endfacet
  facet normal 0 0 1
    outer loop
      vertex -48.9074 10.3956 15
      vertex -27.6345 11.5 15
      vertex -45.6773 20.3368 15
    endloop
  endfacet
  facet normal 0 0 1
    outer loop
      vertex -24.2705 -17.6336 15
      vertex -40.4509 -29.3893 15
      vertex -33.4565 -37.1572 15
    endloop
  endfacet
  facet normal 0 0 1
    outer loop
      vertex -50 0 15
      vertex -27.6345 11.5 15
      vertex -48.9074 10.3956 15
    endloop
  endfacet
  facet normal 0 0 1
    outer loop
      vertex -27.4064 -12.2021 15
      vertex -45.6773 -20.3368 15
      vertex -40.4509 -29.3893 15
    endloop
  endfacet
  facet normal 0 0 1
    outer loop
      vertex -27.6345 11.5 15
      vertex -50 0 15
      vertex -27.6345 -11.5 15
    endloop
  endfacet
  facet normal 0 0 1
    outer loop
      vertex -27.6345 -11.5 15
      vertex -48.9074 -10.3956 15
      vertex -45.6773 -20.3368 15
    endloop
  endfacet
  facet normal 0 0 1
    outer loop
      vertex -27.6345 -11.5 15
      vertex -50 0 15
      vertex -48.9074 -10.3956 15
    endloop
  endfacet
  facet normal -0 0 1
    outer loop
      vertex 11.2487 -2.39098 15
      vertex 27.6345 -11.5 15
      vertex 11.5 0 15
    endloop
  endfacet
  facet normal -0 0 1
    outer loop
      vertex 10.5058 -4.67747 15
      vertex 27.6345 -11.5 15
      vertex 11.2487 -2.39098 15
    endloop
  endfacet
  facet normal -0 0 1
    outer loop
      vertex 9.30369 -6.75953 15
      vertex 27.6345 -11.5 15
      vertex 10.5058 -4.67747 15
    endloop
  endfacet
  facet normal -0 0 1
    outer loop
      vertex 7.695 -8.54617 15
      vertex 27.6345 -11.5 15
      vertex 9.30369 -6.75953 15
    endloop
  endfacet
  facet normal -0 0 1
    outer loop
      vertex 5.75 -9.95929 15
      vertex 27.6345 -11.5 15
      vertex 7.695 -8.54617 15
    endloop
  endfacet
  facet normal -0 0 1
    outer loop
      vertex 3.55369 -10.9371 15
      vertex 27.6345 -11.5 15
      vertex 5.75 -9.95929 15
    endloop
  endfacet
  facet normal -0 0 1
    outer loop
      vertex 1.20208 -11.437 15
      vertex 27.6345 -11.5 15
      vertex 3.55369 -10.9371 15
    endloop
  endfacet
  facet normal -0 0 1
    outer loop
      vertex -1.20208 -11.437 15
      vertex 27.6345 -11.5 15
      vertex 1.20208 -11.437 15
    endloop
  endfacet
  facet normal 0 0 1
    outer loop
      vertex -27.6345 -11.5 15
      vertex -11.5 0 15
      vertex -27.6345 11.5 15
    endloop
  endfacet
  facet normal 0 0 1
    outer loop
      vertex -11.5 0 15
      vertex -27.6345 -11.5 15
      vertex -11.2487 -2.39098 15
    endloop
  endfacet
  facet normal 0 0 1
    outer loop
      vertex -11.2487 -2.39098 15
      vertex -27.6345 -11.5 15
      vertex -10.5058 -4.67747 15
    endloop
  endfacet
  facet normal 0 0 1
    outer loop
      vertex -10.5058 -4.67747 15
      vertex -27.6345 -11.5 15
      vertex -9.30369 -6.75953 15
    endloop
  endfacet
  facet normal 0 0 1
    outer loop
      vertex -1.20208 -11.437 15
      vertex -27.6345 -11.5 15
      vertex 27.6345 -11.5 15
    endloop
  endfacet
  facet normal 0 0 1
    outer loop
      vertex -3.55369 -10.9371 15
      vertex -27.6345 -11.5 15
      vertex -1.20208 -11.437 15
    endloop
  endfacet
  facet normal 0 0 1
    outer loop
      vertex -5.75 -9.95929 15
      vertex -27.6345 -11.5 15
      vertex -3.55369 -10.9371 15
    endloop
  endfacet
  facet normal 0 0 1
    outer loop
      vertex -7.695 -8.54617 15
      vertex -27.6345 -11.5 15
      vertex -5.75 -9.95929 15
    endloop
  endfacet
  facet normal 0 0 1
    outer loop
      vertex -9.30369 -6.75953 15
      vertex -27.6345 -11.5 15
      vertex -7.695 -8.54617 15
    endloop
  endfacet
  facet normal -0 0 1
    outer loop
      vertex 43.7841 1.82231 15
      vertex 50 0 15
      vertex 48.9074 10.3956 15
    endloop
  endfacet
  facet normal 0 0 1
    outer loop
      vertex 40.9346 4.0947 15
      vertex 48.9074 10.3956 15
      vertex 45.6773 20.3368 15
    endloop
  endfacet
  facet normal 0 0 1
    outer loop
      vertex 43.7841 -1.82231 15
      vertex 50 0 15
      vertex 44.2 0 15
    endloop
  endfacet
  facet normal 0 0 1
    outer loop
      vertex 50 0 15
      vertex 43.7841 -1.82231 15
      vertex 48.9074 -10.3956 15
    endloop
  endfacet
  facet normal 0 0 1
    outer loop
      vertex 50 0 15
      vertex 43.7841 1.82231 15
      vertex 44.2 0 15
    endloop
  endfacet
  facet normal 0 0 1
    outer loop
      vertex 48.9074 10.3956 15
      vertex 42.6187 3.28369 15
      vertex 43.7841 1.82231 15
    endloop
  endfacet
  facet normal 0 0 1
    outer loop
      vertex 48.9074 10.3956 15
      vertex 40.9346 4.0947 15
      vertex 42.6187 3.28369 15
    endloop
  endfacet
  facet normal 0 0 1
    outer loop
      vertex 27.4064 12.2021 15
      vertex 45.6773 20.3368 15
      vertex 40.4509 29.3893 15
    endloop
  endfacet
  facet normal 0 0 1
    outer loop
      vertex 45.6773 20.3368 15
      vertex 39.0654 4.0947 15
      vertex 40.9346 4.0947 15
    endloop
  endfacet
  facet normal 0 -0 1
    outer loop
      vertex 27.6345 11.5 15
      vertex 45.6773 20.3368 15
      vertex 27.4064 12.2021 15
    endloop
  endfacet
  facet normal 0 0 1
    outer loop
      vertex 45.6773 20.3368 15
      vertex 27.6345 11.5 15
      vertex 39.0654 4.0947 15
    endloop
  endfacet
  facet normal 0 0 1
    outer loop
      vertex 37.3813 3.28369 15
      vertex 27.6345 11.5 15
      vertex 36.2159 1.82231 15
    endloop
  endfacet
  facet normal 0 0 1
    outer loop
      vertex 24.2705 17.6336 15
      vertex 40.4509 29.3893 15
      vertex 33.4565 37.1572 15
    endloop
  endfacet
  facet normal -0 0 1
    outer loop
      vertex 42.6187 -3.28369 15
      vertex 48.9074 -10.3956 15
      vertex 43.7841 -1.82231 15
    endloop
  endfacet
  facet normal -0 0 1
    outer loop
      vertex 40.9346 -4.0947 15
      vertex 48.9074 -10.3956 15
      vertex 42.6187 -3.28369 15
    endloop
  endfacet
  facet normal 0 0 1
    outer loop
      vertex 48.9074 -10.3956 15
      vertex 40.9346 -4.0947 15
      vertex 45.6773 -20.3368 15
    endloop
  endfacet
  facet normal -0 0 1
    outer loop
      vertex 39.0654 -4.0947 15
      vertex 45.6773 -20.3368 15
      vertex 40.9346 -4.0947 15
    endloop
  endfacet
  facet normal 0 0 1
    outer loop
      vertex 27.6345 -11.5 15
      vertex 39.0654 -4.0947 15
      vertex 37.3813 -3.28369 15
    endloop
  endfacet
  facet normal 0 0 1
    outer loop
      vertex 39.0654 -4.0947 15
      vertex 27.6345 -11.5 15
      vertex 45.6773 -20.3368 15
    endloop
  endfacet
  facet normal 0 0 1
    outer loop
      vertex 27.6345 -11.5 15
      vertex 37.3813 -3.28369 15
      vertex 36.2159 -1.82231 15
    endloop
  endfacet
  facet normal 0 0 1
    outer loop
      vertex 27.6345 -11.5 15
      vertex 35.8 0 15
      vertex 27.6345 11.5 15
    endloop
  endfacet
  facet normal -0 0 1
    outer loop
      vertex 27.4064 -12.2021 15
      vertex 45.6773 -20.3368 15
      vertex 27.6345 -11.5 15
    endloop
  endfacet
  facet normal 0 0 1
    outer loop
      vertex 36.2159 1.82231 15
      vertex 27.6345 11.5 15
      vertex 35.8 0 15
    endloop
  endfacet
  facet normal 0 0 1
    outer loop
      vertex 35.8 0 15
      vertex 27.6345 -11.5 15
      vertex 36.2159 -1.82231 15
    endloop
  endfacet
  facet normal 0 0 1
    outer loop
      vertex 39.0654 4.0947 15
      vertex 27.6345 11.5 15
      vertex 37.3813 3.28369 15
    endloop
  endfacet
  facet normal 0 0 1
    outer loop
      vertex 20.0739 22.2943 15
      vertex 33.4565 37.1572 15
      vertex 25 43.3013 15
    endloop
  endfacet
  facet normal 0 0 1
    outer loop
      vertex 40.4509 29.3893 15
      vertex 24.2705 17.6336 15
      vertex 27.4064 12.2021 15
    endloop
  endfacet
  facet normal 0 0 1
    outer loop
      vertex 33.4565 37.1572 15
      vertex 20.0739 22.2943 15
      vertex 24.2705 17.6336 15
    endloop
  endfacet
  facet normal 0 0 1
    outer loop
      vertex 15 25.9808 15
      vertex 25 43.3013 15
      vertex 15.4508 47.5528 15
    endloop
  endfacet
  facet normal 0 0 1
    outer loop
      vertex 25 43.3013 15
      vertex 15 25.9808 15
      vertex 20.0739 22.2943 15
    endloop
  endfacet
  facet normal 0 0 1
    outer loop
      vertex 15.4508 47.5528 15
      vertex 9.27051 28.5317 15
      vertex 15 25.9808 15
    endloop
  endfacet
  facet normal 0 0 1
    outer loop
      vertex 5.22642 49.7261 15
      vertex 9.27051 28.5317 15
      vertex 15.4508 47.5528 15
    endloop
  endfacet
  facet normal 0 0 1
    outer loop
      vertex 5.22642 49.7261 15
      vertex 3.13585 29.8357 15
      vertex 9.27051 28.5317 15
    endloop
  endfacet
  facet normal 0 0 1
    outer loop
      vertex 5.22642 49.7261 15
      vertex -3.13585 29.8357 15
      vertex 3.13585 29.8357 15
    endloop
  endfacet
  facet normal -0 0 1
    outer loop
      vertex -5.22642 49.7261 15
      vertex -3.13585 29.8357 15
      vertex 5.22642 49.7261 15
    endloop
  endfacet
  facet normal 0 0 1
    outer loop
      vertex -5.22642 49.7261 15
      vertex -9.27051 28.5317 15
      vertex -3.13585 29.8357 15
    endloop
  endfacet
  facet normal -0 0 1
    outer loop
      vertex -15.4508 47.5528 15
      vertex -9.27051 28.5317 15
      vertex -5.22642 49.7261 15
    endloop
  endfacet
  facet normal 0 0 1
    outer loop
      vertex -9.27051 28.5317 15
      vertex -15.4508 47.5528 15
      vertex -15 25.9808 15
    endloop
  endfacet
  facet normal -0 0 1
    outer loop
      vertex -25 43.3013 15
      vertex -15 25.9808 15
      vertex -15.4508 47.5528 15
    endloop
  endfacet
  facet normal 0 0 1
    outer loop
      vertex -15 25.9808 15
      vertex -25 43.3013 15
      vertex -20.0739 22.2943 15
    endloop
  endfacet
  facet normal -0 0 1
    outer loop
      vertex -33.4565 37.1572 15
      vertex -20.0739 22.2943 15
      vertex -25 43.3013 15
    endloop
  endfacet
  facet normal 0 0 1
    outer loop
      vertex -20.0739 22.2943 15
      vertex -33.4565 37.1572 15
      vertex -24.2705 17.6336 15
    endloop
  endfacet
  facet normal -0 0 1
    outer loop
      vertex -40.4509 29.3893 15
      vertex -24.2705 17.6336 15
      vertex -33.4565 37.1572 15
    endloop
  endfacet
  facet normal -0 0 1
    outer loop
      vertex -45.6773 20.3368 15
      vertex -27.4064 12.2021 15
      vertex -40.4509 29.3893 15
    endloop
  endfacet
  facet normal 0 0 1
    outer loop
      vertex -24.2705 17.6336 15
      vertex -40.4509 29.3893 15
      vertex -27.4064 12.2021 15
    endloop
  endfacet
  facet normal -0.587785 0.809017 0
    outer loop
      vertex -25 43.3013 0
      vertex -33.4565 37.1572 15
      vertex -25 43.3013 15
    endloop
  endfacet
  facet normal -0.587785 0.809017 0
    outer loop
      vertex -33.4565 37.1572 15
      vertex -25 43.3013 0
      vertex -33.4565 37.1572 0
    endloop
  endfacet
  facet normal -0.207912 0.978148 0
    outer loop
      vertex -5.22642 49.7261 0
      vertex -15.4508 47.5528 15
      vertex -5.22642 49.7261 15
    endloop
  endfacet
  facet normal -0.207912 0.978148 0
    outer loop
      vertex -15.4508 47.5528 15
      vertex -5.22642 49.7261 0
      vertex -15.4508 47.5528 0
    endloop
  endfacet
  facet normal 0.994522 -0.104529 0
    outer loop
      vertex 48.9074 -10.3956 15
      vertex 50 0 0
      vertex 50 0 15
    endloop
  endfacet
  facet normal 0.994522 -0.104529 0
    outer loop
      vertex 50 0 0
      vertex 48.9074 -10.3956 15
      vertex 48.9074 -10.3956 0
    endloop
  endfacet
  facet normal 0 0 -1
    outer loop
      vertex -27.6345 -11.5 0
      vertex 27.6345 11.5 0
      vertex 27.6345 -11.5 0
    endloop
  endfacet
  facet normal -0 0 -1
    outer loop
      vertex 27.6345 11.5 0
      vertex -27.6345 -11.5 0
      vertex -27.6345 11.5 0
    endloop
  endfacet
  facet normal -0 0 -1
    outer loop
      vertex 45.6773 20.3368 0
      vertex 27.4064 12.2021 0
      vertex 40.4509 29.3893 0
    endloop
  endfacet
  facet normal 0 0 -1
    outer loop
      vertex 24.2705 17.6336 0
      vertex 40.4509 29.3893 0
      vertex 27.4064 12.2021 0
    endloop
  endfacet
  facet normal -0 0 -1
    outer loop
      vertex 40.4509 29.3893 0
      vertex 24.2705 17.6336 0
      vertex 33.4565 37.1572 0
    endloop
  endfacet
  facet normal 0 0 -1
    outer loop
      vertex 20.0739 22.2943 0
      vertex 33.4565 37.1572 0
      vertex 24.2705 17.6336 0
    endloop
  endfacet
  facet normal -0 0 -1
    outer loop
      vertex 33.4565 37.1572 0
      vertex 20.0739 22.2943 0
      vertex 25 43.3013 0
    endloop
  endfacet
  facet normal 0 0 -1
    outer loop
      vertex 15 25.9808 0
      vertex 25 43.3013 0
      vertex 20.0739 22.2943 0
    endloop
  endfacet
  facet normal -0 0 -1
    outer loop
      vertex 25 43.3013 0
      vertex 15 25.9808 0
      vertex 15.4508 47.5528 0
    endloop
  endfacet
  facet normal 0 0 -1
    outer loop
      vertex 9.27051 28.5317 0
      vertex 15.4508 47.5528 0
      vertex 15 25.9808 0
    endloop
  endfacet
  facet normal 0 0 -1
    outer loop
      vertex 9.27051 28.5317 0
      vertex 5.22642 49.7261 0
      vertex 15.4508 47.5528 0
    endloop
  endfacet
  facet normal 0 0 -1
    outer loop
      vertex 3.13585 29.8357 0
      vertex 5.22642 49.7261 0
      vertex 9.27051 28.5317 0
    endloop
  endfacet
  facet normal 0 0 -1
    outer loop
      vertex -3.13585 29.8357 0
      vertex 5.22642 49.7261 0
      vertex 3.13585 29.8357 0
    endloop
  endfacet
  facet normal 0 0 -1
    outer loop
      vertex -3.13585 29.8357 0
      vertex -5.22642 49.7261 0
      vertex 5.22642 49.7261 0
    endloop
  endfacet
  facet normal 0 0 -1
    outer loop
      vertex -9.27051 28.5317 0
      vertex -5.22642 49.7261 0
      vertex -3.13585 29.8357 0
    endloop
  endfacet
  facet normal 0 0 -1
    outer loop
      vertex -15.4508 47.5528 0
      vertex -9.27051 28.5317 0
      vertex -15 25.9808 0
    endloop
  endfacet
  facet normal 0 0 -1
    outer loop
      vertex -9.27051 28.5317 0
      vertex -15.4508 47.5528 0
      vertex -5.22642 49.7261 0
    endloop
  endfacet
  facet normal 0 0 -1
    outer loop
      vertex -25 43.3013 0
      vertex -15 25.9808 0
      vertex -20.0739 22.2943 0
    endloop
  endfacet
  facet normal 0 0 -1
    outer loop
      vertex -33.4565 37.1572 0
      vertex -20.0739 22.2943 0
      vertex -24.2705 17.6336 0
    endloop
  endfacet
  facet normal 0 0 -1
    outer loop
      vertex -15 25.9808 0
      vertex -25 43.3013 0
      vertex -15.4508 47.5528 0
    endloop
  endfacet
  facet normal 0 0 -1
    outer loop
      vertex -40.4509 29.3893 0
      vertex -24.2705 17.6336 0
      vertex -27.4064 12.2021 0
    endloop
  endfacet
  facet normal 0 0 -1
    outer loop
      vertex -45.6773 20.3368 0
      vertex -27.4064 12.2021 0
      vertex -27.6345 11.5 0
    endloop
  endfacet
  facet normal -0 0 -1
    outer loop
      vertex -27.4064 -12.2021 0
      vertex -45.6773 -20.3368 0
      vertex -27.6345 -11.5 0
    endloop
  endfacet
  facet normal 0 0 -1
    outer loop
      vertex -20.0739 22.2943 0
      vertex -33.4565 37.1572 0
      vertex -25 43.3013 0
    endloop
  endfacet
  facet normal 0 0 -1
    outer loop
      vertex -48.9074 -10.3956 0
      vertex -27.6345 -11.5 0
      vertex -45.6773 -20.3368 0
    endloop
  endfacet
  facet normal 0 0 -1
    outer loop
      vertex -24.2705 17.6336 0
      vertex -40.4509 29.3893 0
      vertex -33.4565 37.1572 0
    endloop
  endfacet
  facet normal 0 0 -1
    outer loop
      vertex -50 0 0
      vertex -27.6345 -11.5 0
      vertex -48.9074 -10.3956 0
    endloop
  endfacet
  facet normal 0 0 -1
    outer loop
      vertex -27.4064 12.2021 0
      vertex -45.6773 20.3368 0
      vertex -40.4509 29.3893 0
    endloop
  endfacet
  facet normal 0 0 -1
    outer loop
      vertex -27.6345 -11.5 0
      vertex -50 0 0
      vertex -27.6345 11.5 0
    endloop
  endfacet
  facet normal -0 0 -1
    outer loop
      vertex -27.6345 11.5 0
      vertex -48.9074 10.3956 0
      vertex -45.6773 20.3368 0
    endloop
  endfacet
  facet normal 0 0 -1
    outer loop
      vertex -27.6345 11.5 0
      vertex -50 0 0
      vertex -48.9074 10.3956 0
    endloop
  endfacet
  facet normal 0 0 -1
    outer loop
      vertex 43.7841 -1.82231 0
      vertex 50 0 0
      vertex 48.9074 -10.3956 0
    endloop
  endfacet
  facet normal 0 0 -1
    outer loop
      vertex 40.9346 -4.0947 0
      vertex 48.9074 -10.3956 0
      vertex 45.6773 -20.3368 0
    endloop
  endfacet
  facet normal 0 0 -1
    outer loop
      vertex 43.7841 1.82231 0
      vertex 50 0 0
      vertex 44.2 0 0
    endloop
  endfacet
  facet normal 0 0 -1
    outer loop
      vertex 50 0 0
      vertex 43.7841 1.82231 0
      vertex 48.9074 10.3956 0
    endloop
  endfacet
  facet normal -0 0 -1
    outer loop
      vertex 50 0 0
      vertex 43.7841 -1.82231 0
      vertex 44.2 0 0
    endloop
  endfacet
  facet normal 0 0 -1
    outer loop
      vertex 48.9074 -10.3956 0
      vertex 42.6187 -3.28369 0
      vertex 43.7841 -1.82231 0
    endloop
  endfacet
  facet normal 0 0 -1
    outer loop
      vertex 48.9074 -10.3956 0
      vertex 40.9346 -4.0947 0
      vertex 42.6187 -3.28369 0
    endloop
  endfacet
  facet normal 0 0 -1
    outer loop
      vertex 27.4064 -12.2021 0
      vertex 45.6773 -20.3368 0
      vertex 40.4509 -29.3893 0
    endloop
  endfacet
  facet normal 0 0 -1
    outer loop
      vertex 45.6773 -20.3368 0
      vertex 39.0654 -4.0947 0
      vertex 40.9346 -4.0947 0
    endloop
  endfacet
  facet normal 0 -0 -1
    outer loop
      vertex 27.6345 -11.5 0
      vertex 45.6773 -20.3368 0
      vertex 27.4064 -12.2021 0
    endloop
  endfacet
  facet normal 0 0 -1
    outer loop
      vertex 45.6773 -20.3368 0
      vertex 27.6345 -11.5 0
      vertex 39.0654 -4.0947 0
    endloop
  endfacet
  facet normal -0 0 -1
    outer loop
      vertex 37.3813 -3.28369 0
      vertex 27.6345 -11.5 0
      vertex 36.2159 -1.82231 0
    endloop
  endfacet
  facet normal 0 0 -1
    outer loop
      vertex 24.2705 -17.6336 0
      vertex 40.4509 -29.3893 0
      vertex 33.4565 -37.1572 0
    endloop
  endfacet
  facet normal 0 0 -1
    outer loop
      vertex 42.6187 3.28369 0
      vertex 48.9074 10.3956 0
      vertex 43.7841 1.82231 0
    endloop
  endfacet
  facet normal 0 0 -1
    outer loop
      vertex 40.9346 4.0947 0
      vertex 48.9074 10.3956 0
      vertex 42.6187 3.28369 0
    endloop
  endfacet
  facet normal -0 0 -1
    outer loop
      vertex 48.9074 10.3956 0
      vertex 40.9346 4.0947 0
      vertex 45.6773 20.3368 0
    endloop
  endfacet
  facet normal 0 0 -1
    outer loop
      vertex 39.0654 4.0947 0
      vertex 45.6773 20.3368 0
      vertex 40.9346 4.0947 0
    endloop
  endfacet
  facet normal 0 0 -1
    outer loop
      vertex 27.6345 11.5 0
      vertex 39.0654 4.0947 0
      vertex 37.3813 3.28369 0
    endloop
  endfacet
  facet normal 0 0 -1
    outer loop
      vertex 39.0654 4.0947 0
      vertex 27.6345 11.5 0
      vertex 45.6773 20.3368 0
    endloop
  endfacet
  facet normal 0 0 -1
    outer loop
      vertex 27.6345 11.5 0
      vertex 37.3813 3.28369 0
      vertex 36.2159 1.82231 0
    endloop
  endfacet
  facet normal 0 0 -1
    outer loop
      vertex 27.6345 11.5 0
      vertex 35.8 0 0
      vertex 27.6345 -11.5 0
    endloop
  endfacet
  facet normal 0 0 -1
    outer loop
      vertex 27.4064 12.2021 0
      vertex 45.6773 20.3368 0
      vertex 27.6345 11.5 0
    endloop
  endfacet
  facet normal -0 0 -1
    outer loop
      vertex 36.2159 -1.82231 0
      vertex 27.6345 -11.5 0
      vertex 35.8 0 0
    endloop
  endfacet
  facet normal 0 0 -1
    outer loop
      vertex 35.8 0 0
      vertex 27.6345 11.5 0
      vertex 36.2159 1.82231 0
    endloop
  endfacet
  facet normal -0 0 -1
    outer loop
      vertex 39.0654 -4.0947 0
      vertex 27.6345 -11.5 0
      vertex 37.3813 -3.28369 0
    endloop
  endfacet
  facet normal 0 0 -1
    outer loop
      vertex 20.0739 -22.2943 0
      vertex 33.4565 -37.1572 0
      vertex 25 -43.3013 0
    endloop
  endfacet
  facet normal 0 0 -1
    outer loop
      vertex 40.4509 -29.3893 0
      vertex 24.2705 -17.6336 0
      vertex 27.4064 -12.2021 0
    endloop
  endfacet
  facet normal 0 0 -1
    outer loop
      vertex 33.4565 -37.1572 0
      vertex 20.0739 -22.2943 0
      vertex 24.2705 -17.6336 0
    endloop
  endfacet
  facet normal 0 0 -1
    outer loop
      vertex 15 -25.9808 0
      vertex 25 -43.3013 0
      vertex 15.4508 -47.5528 0
    endloop
  endfacet
  facet normal 0 0 -1
    outer loop
      vertex 25 -43.3013 0
      vertex 15 -25.9808 0
      vertex 20.0739 -22.2943 0
    endloop
  endfacet
  facet normal 0 0 -1
    outer loop
      vertex 15.4508 -47.5528 0
      vertex 9.27051 -28.5317 0
      vertex 15 -25.9808 0
    endloop
  endfacet
  facet normal 0 0 -1
    outer loop
      vertex 5.22642 -49.7261 0
      vertex 9.27051 -28.5317 0
      vertex 15.4508 -47.5528 0
    endloop
  endfacet
  facet normal 0 0 -1
    outer loop
      vertex 5.22642 -49.7261 0
      vertex 3.13585 -29.8357 0
      vertex 9.27051 -28.5317 0
    endloop
  endfacet
  facet normal 0 0 -1
    outer loop
      vertex 5.22642 -49.7261 0
      vertex -3.13585 -29.8357 0
      vertex 3.13585 -29.8357 0
    endloop
  endfacet
  facet normal 0 0 -1
    outer loop
      vertex -5.22642 -49.7261 0
      vertex -3.13585 -29.8357 0
      vertex 5.22642 -49.7261 0
    endloop
  endfacet
  facet normal 0 0 -1
    outer loop
      vertex -5.22642 -49.7261 0
      vertex -9.27051 -28.5317 0
      vertex -3.13585 -29.8357 0
    endloop
  endfacet
  facet normal 0 0 -1
    outer loop
      vertex -15.4508 -47.5528 0
      vertex -9.27051 -28.5317 0
      vertex -5.22642 -49.7261 0
    endloop
  endfacet
  facet normal -0 0 -1
    outer loop
      vertex -9.27051 -28.5317 0
      vertex -15.4508 -47.5528 0
      vertex -15 -25.9808 0
    endloop
  endfacet
  facet normal 0 0 -1
    outer loop
      vertex -25 -43.3013 0
      vertex -15 -25.9808 0
      vertex -15.4508 -47.5528 0
    endloop
  endfacet
  facet normal -0 0 -1
    outer loop
      vertex -15 -25.9808 0
      vertex -25 -43.3013 0
      vertex -20.0739 -22.2943 0
    endloop
  endfacet
  facet normal 0 0 -1
    outer loop
      vertex -33.4565 -37.1572 0
      vertex -20.0739 -22.2943 0
      vertex -25 -43.3013 0
    endloop
  endfacet
  facet normal -0 0 -1
    outer loop
      vertex -20.0739 -22.2943 0
      vertex -33.4565 -37.1572 0
      vertex -24.2705 -17.6336 0
    endloop
  endfacet
  facet normal 0 0 -1
    outer loop
      vertex -40.4509 -29.3893 0
      vertex -24.2705 -17.6336 0
      vertex -33.4565 -37.1572 0
    endloop
  endfacet
  facet normal 0 0 -1
    outer loop
      vertex -45.6773 -20.3368 0
      vertex -27.4064 -12.2021 0
      vertex -40.4509 -29.3893 0
    endloop
  endfacet
  facet normal -0 0 -1
    outer loop
      vertex -24.2705 -17.6336 0
      vertex -40.4509 -29.3893 0
      vertex -27.4064 -12.2021 0
    endloop
  endfacet
  facet normal 0.743145 -0.669131 0
    outer loop
      vertex 33.4565 -37.1572 15
      vertex 40.4509 -29.3893 0
      vertex 40.4509 -29.3893 15
    endloop
  endfacet
  facet normal 0.743145 -0.669131 0
    outer loop
      vertex 40.4509 -29.3893 0
      vertex 33.4565 -37.1572 15
      vertex 33.4565 -37.1572 0
    endloop
  endfacet
  facet normal 0.951057 -0.309017 0
    outer loop
      vertex 45.6773 -20.3368 15
      vertex 48.9074 -10.3956 0
      vertex 48.9074 -10.3956 15
    endloop
  endfacet
  facet normal 0.951057 -0.309017 0
    outer loop
      vertex 48.9074 -10.3956 0
      vertex 45.6773 -20.3368 15
      vertex 45.6773 -20.3368 0
    endloop
  endfacet
  facet normal 0.866025 -0.5 0
    outer loop
      vertex 40.4509 -29.3893 15
      vertex 45.6773 -20.3368 0
      vertex 45.6773 -20.3368 15
    endloop
  endfacet
  facet normal 0.866025 -0.5 0
    outer loop
      vertex 45.6773 -20.3368 0
      vertex 40.4509 -29.3893 15
      vertex 40.4509 -29.3893 0
    endloop
  endfacet
  facet normal -0.866025 -0.5 0
    outer loop
      vertex -40.4509 -29.3893 0
      vertex -45.6773 -20.3368 15
      vertex -45.6773 -20.3368 0
    endloop
  endfacet
  facet normal -0.866025 -0.5 0
    outer loop
      vertex -45.6773 -20.3368 15
      vertex -40.4509 -29.3893 0
      vertex -40.4509 -29.3893 15
    endloop
  endfacet
  facet normal 0.587785 -0.809017 0
    outer loop
      vertex 25 -43.3013 0
      vertex 33.4565 -37.1572 15
      vertex 25 -43.3013 15
    endloop
  endfacet
  facet normal 0.587785 -0.809017 0
    outer loop
      vertex 33.4565 -37.1572 15
      vertex 25 -43.3013 0
      vertex 33.4565 -37.1572 0
    endloop
  endfacet
  facet normal -0.207912 -0.978148 0
    outer loop
      vertex -15.4508 -47.5528 0
      vertex -5.22642 -49.7261 15
      vertex -15.4508 -47.5528 15
    endloop
  endfacet
  facet normal -0.207912 -0.978148 -0
    outer loop
      vertex -5.22642 -49.7261 15
      vertex -15.4508 -47.5528 0
      vertex -5.22642 -49.7261 0
    endloop
  endfacet
  facet normal -0.406737 -0.913545 0
    outer loop
      vertex -25 -43.3013 0
      vertex -15.4508 -47.5528 15
      vertex -25 -43.3013 15
    endloop
  endfacet
  facet normal -0.406737 -0.913545 -0
    outer loop
      vertex -15.4508 -47.5528 15
      vertex -25 -43.3013 0
      vertex -15.4508 -47.5528 0
    endloop
  endfacet
  facet normal -0.743145 -0.669131 0
    outer loop
      vertex -33.4565 -37.1572 0
      vertex -40.4509 -29.3893 15
      vertex -40.4509 -29.3893 0
    endloop
  endfacet
  facet normal -0.743145 -0.669131 0
    outer loop
      vertex -40.4509 -29.3893 15
      vertex -33.4565 -37.1572 0
      vertex -33.4565 -37.1572 15
    endloop
  endfacet
  facet normal -0.951057 -0.309017 0
    outer loop
      vertex -45.6773 -20.3368 0
      vertex -48.9074 -10.3956 15
      vertex -48.9074 -10.3956 0
    endloop
  endfacet
  facet normal -0.951057 -0.309017 0
    outer loop
      vertex -48.9074 -10.3956 15
      vertex -45.6773 -20.3368 0
      vertex -45.6773 -20.3368 15
    endloop
  endfacet
  facet normal -0.994522 -0.104529 0
    outer loop
      vertex -48.9074 -10.3956 0
      vertex -50 0 15
      vertex -50 0 0
    endloop
  endfacet
  facet normal -0.994522 -0.104529 0
    outer loop
      vertex -50 0 15
      vertex -48.9074 -10.3956 0
      vertex -48.9074 -10.3956 15
    endloop
  endfacet
  facet normal 0.406737 -0.913545 0
    outer loop
      vertex 15.4508 -47.5528 0
      vertex 25 -43.3013 15
      vertex 15.4508 -47.5528 15
    endloop
  endfacet
  facet normal 0.406737 -0.913545 0
    outer loop
      vertex 25 -43.3013 15
      vertex 15.4508 -47.5528 0
      vertex 25 -43.3013 0
    endloop
  endfacet
  facet normal 0.207912 -0.978148 0
    outer loop
      vertex 5.22642 -49.7261 0
      vertex 15.4508 -47.5528 15
      vertex 5.22642 -49.7261 15
    endloop
  endfacet
  facet normal 0.207912 -0.978148 0
    outer loop
      vertex 15.4508 -47.5528 15
      vertex 5.22642 -49.7261 0
      vertex 15.4508 -47.5528 0
    endloop
  endfacet
  facet normal -0.587785 -0.809017 0
    outer loop
      vertex -33.4565 -37.1572 0
      vertex -25 -43.3013 15
      vertex -33.4565 -37.1572 15
    endloop
  endfacet
  facet normal -0.587785 -0.809017 -0
    outer loop
      vertex -25 -43.3013 15
      vertex -33.4565 -37.1572 0
      vertex -25 -43.3013 0
    endloop
  endfacet
  facet normal 0 -1 0
    outer loop
      vertex -3.13585 29.8357 0
      vertex 3.13585 29.8357 15
      vertex -3.13585 29.8357 15
    endloop
  endfacet
  facet normal 0 -1 -0
    outer loop
      vertex 3.13585 29.8357 15
      vertex -3.13585 29.8357 0
      vertex 3.13585 29.8357 0
    endloop
  endfacet
  facet normal 0 1 -0
    outer loop
      vertex 3.13585 -29.8357 0
      vertex -3.13585 -29.8357 15
      vertex 3.13585 -29.8357 15
    endloop
  endfacet
  facet normal 0 1 0
    outer loop
      vertex -3.13585 -29.8357 15
      vertex 3.13585 -29.8357 0
      vertex -3.13585 -29.8357 0
    endloop
  endfacet
  facet normal -0.587785 -0.809017 0
    outer loop
      vertex 15 25.9808 0
      vertex 20.0739 22.2943 15
      vertex 15 25.9808 15
    endloop
  endfacet
  facet normal -0.587785 -0.809017 -0
    outer loop
      vertex 20.0739 22.2943 15
      vertex 15 25.9808 0
      vertex 20.0739 22.2943 0
    endloop
  endfacet
  facet normal -0.406737 -0.913545 0
    outer loop
      vertex 9.27051 28.5317 0
      vertex 15 25.9808 15
      vertex 9.27051 28.5317 15
    endloop
  endfacet
  facet normal -0.406737 -0.913545 -0
    outer loop
      vertex 15 25.9808 15
      vertex 9.27051 28.5317 0
      vertex 15 25.9808 0
    endloop
  endfacet
  facet normal 0.743145 -0.669131 0
    outer loop
      vertex -24.2705 17.6336 15
      vertex -20.0739 22.2943 0
      vertex -20.0739 22.2943 15
    endloop
  endfacet
  facet normal 0.743145 -0.669131 0
    outer loop
      vertex -20.0739 22.2943 0
      vertex -24.2705 17.6336 15
      vertex -24.2705 17.6336 0
    endloop
  endfacet
  facet normal 0.866025 -0.5 0
    outer loop
      vertex -27.4064 12.2021 15
      vertex -24.2705 17.6336 0
      vertex -24.2705 17.6336 15
    endloop
  endfacet
  facet normal 0.866025 -0.5 0
    outer loop
      vertex -24.2705 17.6336 0
      vertex -27.4064 12.2021 15
      vertex -27.4064 12.2021 0
    endloop
  endfacet
  facet normal 0.406737 -0.913545 0
    outer loop
      vertex -15 25.9808 0
      vertex -9.27051 28.5317 15
      vertex -15 25.9808 15
    endloop
  endfacet
  facet normal 0.406737 -0.913545 0
    outer loop
      vertex -9.27051 28.5317 15
      vertex -15 25.9808 0
      vertex -9.27051 28.5317 0
    endloop
  endfacet
  facet normal -0.866025 -0.5 0
    outer loop
      vertex 27.4064 12.2021 0
      vertex 24.2705 17.6336 15
      vertex 24.2705 17.6336 0
    endloop
  endfacet
  facet normal -0.866025 -0.5 0
    outer loop
      vertex 24.2705 17.6336 15
      vertex 27.4064 12.2021 0
      vertex 27.4064 12.2021 15
    endloop
  endfacet
  facet normal -0.951057 -0.309016 0
    outer loop
      vertex 27.6345 11.5 0
      vertex 27.4064 12.2021 15
      vertex 27.4064 12.2021 0
    endloop
  endfacet
  facet normal -0.951057 -0.309016 0
    outer loop
      vertex 27.4064 12.2021 15
      vertex 27.6345 11.5 0
      vertex 27.6345 11.5 15
    endloop
  endfacet
  facet normal -0.743145 -0.669131 0
    outer loop
      vertex 24.2705 17.6336 0
      vertex 20.0739 22.2943 15
      vertex 20.0739 22.2943 0
    endloop
  endfacet
  facet normal -0.743145 -0.669131 0
    outer loop
      vertex 20.0739 22.2943 15
      vertex 24.2705 17.6336 0
      vertex 24.2705 17.6336 15
    endloop
  endfacet
  facet normal -0.207911 -0.978148 0
    outer loop
      vertex 3.13585 29.8357 0
      vertex 9.27051 28.5317 15
      vertex 3.13585 29.8357 15
    endloop
  endfacet
  facet normal -0.207911 -0.978148 -0
    outer loop
      vertex 9.27051 28.5317 15
      vertex 3.13585 29.8357 0
      vertex 9.27051 28.5317 0
    endloop
  endfacet
  facet normal 0.951057 -0.309016 0
    outer loop
      vertex -27.6345 11.5 15
      vertex -27.4064 12.2021 0
      vertex -27.4064 12.2021 15
    endloop
  endfacet
  facet normal 0.951057 -0.309016 0
    outer loop
      vertex -27.4064 12.2021 0
      vertex -27.6345 11.5 15
      vertex -27.6345 11.5 0
    endloop
  endfacet
  facet normal 0.587785 -0.809017 0
    outer loop
      vertex -20.0739 22.2943 0
      vertex -15 25.9808 15
      vertex -20.0739 22.2943 15
    endloop
  endfacet
  facet normal 0.587785 -0.809017 0
    outer loop
      vertex -15 25.9808 15
      vertex -20.0739 22.2943 0
      vertex -15 25.9808 0
    endloop
  endfacet
  facet normal 0.207911 -0.978148 0
    outer loop
      vertex -9.27051 28.5317 0
      vertex -3.13585 29.8357 15
      vertex -9.27051 28.5317 15
    endloop
  endfacet
  facet normal 0.207911 -0.978148 0
    outer loop
      vertex -3.13585 29.8357 15
      vertex -9.27051 28.5317 0
      vertex -3.13585 29.8357 0
    endloop
  endfacet
  facet normal -0.207911 0.978148 0
    outer loop
      vertex 9.27051 -28.5317 0
      vertex 3.13585 -29.8357 15
      vertex 9.27051 -28.5317 15
    endloop
  endfacet
  facet normal -0.207911 0.978148 0
    outer loop
      vertex 3.13585 -29.8357 15
      vertex 9.27051 -28.5317 0
      vertex 3.13585 -29.8357 0
    endloop
  endfacet
  facet normal -0.743145 0.669131 0
    outer loop
      vertex 20.0739 -22.2943 0
      vertex 24.2705 -17.6336 15
      vertex 24.2705 -17.6336 0
    endloop
  endfacet
  facet normal -0.743145 0.669131 0
    outer loop
      vertex 24.2705 -17.6336 15
      vertex 20.0739 -22.2943 0
      vertex 20.0739 -22.2943 15
    endloop
  endfacet
  facet normal -0.951057 0.309016 0
    outer loop
      vertex 27.4064 -12.2021 0
      vertex 27.6345 -11.5 15
      vertex 27.6345 -11.5 0
    endloop
  endfacet
  facet normal -0.951057 0.309016 0
    outer loop
      vertex 27.6345 -11.5 15
      vertex 27.4064 -12.2021 0
      vertex 27.4064 -12.2021 15
    endloop
  endfacet
  facet normal -0.866025 0.5 0
    outer loop
      vertex 24.2705 -17.6336 0
      vertex 27.4064 -12.2021 15
      vertex 27.4064 -12.2021 0
    endloop
  endfacet
  facet normal -0.866025 0.5 0
    outer loop
      vertex 27.4064 -12.2021 15
      vertex 24.2705 -17.6336 0
      vertex 24.2705 -17.6336 15
    endloop
  endfacet
  facet normal 0.866025 0.5 0
    outer loop
      vertex -24.2705 -17.6336 15
      vertex -27.4064 -12.2021 0
      vertex -27.4064 -12.2021 15
    endloop
  endfacet
  facet normal 0.866025 0.5 0
    outer loop
      vertex -27.4064 -12.2021 0
      vertex -24.2705 -17.6336 15
      vertex -24.2705 -17.6336 0
    endloop
  endfacet
  facet normal -0.587785 0.809017 0
    outer loop
      vertex 20.0739 -22.2943 0
      vertex 15 -25.9808 15
      vertex 20.0739 -22.2943 15
    endloop
  endfacet
  facet normal -0.587785 0.809017 0
    outer loop
      vertex 15 -25.9808 15
      vertex 20.0739 -22.2943 0
      vertex 15 -25.9808 0
    endloop
  endfacet
  facet normal -0.406737 0.913545 0
    outer loop
      vertex 15 -25.9808 0
      vertex 9.27051 -28.5317 15
      vertex 15 -25.9808 15
    endloop
  endfacet
  facet normal -0.406737 0.913545 0
    outer loop
      vertex 9.27051 -28.5317 15
      vertex 15 -25.9808 0
      vertex 9.27051 -28.5317 0
    endloop
  endfacet
  facet normal 0.406737 0.913545 -0
    outer loop
      vertex -9.27051 -28.5317 0
      vertex -15 -25.9808 15
      vertex -9.27051 -28.5317 15
    endloop
  endfacet
  facet normal 0.406737 0.913545 0
    outer loop
      vertex -15 -25.9808 15
      vertex -9.27051 -28.5317 0
      vertex -15 -25.9808 0
    endloop
  endfacet
  facet normal 0.743145 0.669131 0
    outer loop
      vertex -20.0739 -22.2943 15
      vertex -24.2705 -17.6336 0
      vertex -24.2705 -17.6336 15
    endloop
  endfacet
  facet normal 0.743145 0.669131 0
    outer loop
      vertex -24.2705 -17.6336 0
      vertex -20.0739 -22.2943 15
      vertex -20.0739 -22.2943 0
    endloop
  endfacet
  facet normal 0.951057 0.309016 0
    outer loop
      vertex -27.4064 -12.2021 15
      vertex -27.6345 -11.5 0
      vertex -27.6345 -11.5 15
    endloop
  endfacet
  facet normal 0.951057 0.309016 0
    outer loop
      vertex -27.6345 -11.5 0
      vertex -27.4064 -12.2021 15
      vertex -27.4064 -12.2021 0
    endloop
  endfacet
  facet normal 0.587785 0.809017 -0
    outer loop
      vertex -15 -25.9808 0
      vertex -20.0739 -22.2943 15
      vertex -15 -25.9808 15
    endloop
  endfacet
  facet normal 0.587785 0.809017 0
    outer loop
      vertex -20.0739 -22.2943 15
      vertex -15 -25.9808 0
      vertex -20.0739 -22.2943 0
    endloop
  endfacet
  facet normal 0.207911 0.978148 -0
    outer loop
      vertex -3.13585 -29.8357 0
      vertex -9.27051 -28.5317 15
      vertex -3.13585 -29.8357 15
    endloop
  endfacet
  facet normal 0.207911 0.978148 0
    outer loop
      vertex -9.27051 -28.5317 15
      vertex -3.13585 -29.8357 0
      vertex -9.27051 -28.5317 0
    endloop
  endfacet
  facet normal 0.866025 0.5 0
    outer loop
      vertex 10.5058 4.67747 40
      vertex 9.30369 6.75953 15
      vertex 9.30369 6.75953 40
    endloop
  endfacet
  facet normal 0.866025 0.5 0
    outer loop
      vertex 9.30369 6.75953 15
      vertex 10.5058 4.67747 40
      vertex 10.5058 4.67747 15
    endloop
  endfacet
  facet normal 0.951057 0.309017 0
    outer loop
      vertex 11.2487 2.39098 40
      vertex 10.5058 4.67747 15
      vertex 10.5058 4.67747 40
    endloop
  endfacet
  facet normal 0.951057 0.309017 0
    outer loop
      vertex 10.5058 4.67747 15
      vertex 11.2487 2.39098 40
      vertex 11.2487 2.39098 15
    endloop
  endfacet
  facet normal 0.406736 0.913546 -0
    outer loop
      vertex 5.75 9.95929 15
      vertex 3.55369 10.9371 40
      vertex 5.75 9.95929 40
    endloop
  endfacet
  facet normal 0.406736 0.913546 0
    outer loop
      vertex 3.55369 10.9371 40
      vertex 5.75 9.95929 15
      vertex 3.55369 10.9371 15
    endloop
  endfacet
  facet normal -0.207912 0.978148 0
    outer loop
      vertex -1.20208 11.437 15
      vertex -3.55369 10.9371 40
      vertex -1.20208 11.437 40
    endloop
  endfacet
  facet normal -0.207912 0.978148 0
    outer loop
      vertex -3.55369 10.9371 40
      vertex -1.20208 11.437 15
      vertex -3.55369 10.9371 15
    endloop
  endfacet
  facet normal -0.866025 0.5 0
    outer loop
      vertex -10.5058 4.67747 15
      vertex -9.30369 6.75953 40
      vertex -9.30369 6.75953 15
    endloop
  endfacet
  facet normal -0.866025 0.5 0
    outer loop
      vertex -9.30369 6.75953 40
      vertex -10.5058 4.67747 15
      vertex -10.5058 4.67747 40
    endloop
  endfacet
  facet normal 0.994522 -0.104529 0
    outer loop
      vertex 11.2487 -2.39098 40
      vertex 11.5 0 15
      vertex 11.5 0 40
    endloop
  endfacet
  facet normal 0.994522 -0.104529 0
    outer loop
      vertex 11.5 0 15
      vertex 11.2487 -2.39098 40
      vertex 11.2487 -2.39098 15
    endloop
  endfacet
  facet normal 0.207912 -0.978148 0
    outer loop
      vertex 1.20208 -11.437 15
      vertex 3.55369 -10.9371 40
      vertex 1.20208 -11.437 40
    endloop
  endfacet
  facet normal 0.207912 -0.978148 0
    outer loop
      vertex 3.55369 -10.9371 40
      vertex 1.20208 -11.437 15
      vertex 3.55369 -10.9371 15
    endloop
  endfacet
  facet normal 0.743145 0.66913 0
    outer loop
      vertex 9.30369 6.75953 40
      vertex 7.695 8.54617 15
      vertex 7.695 8.54617 40
    endloop
  endfacet
  facet normal 0.743145 0.66913 0
    outer loop
      vertex 7.695 8.54617 15
      vertex 9.30369 6.75953 40
      vertex 9.30369 6.75953 15
    endloop
  endfacet
  facet normal 0 1 -0
    outer loop
      vertex 1.20208 11.437 15
      vertex -1.20208 11.437 40
      vertex 1.20208 11.437 40
    endloop
  endfacet
  facet normal 0 1 0
    outer loop
      vertex -1.20208 11.437 40
      vertex 1.20208 11.437 15
      vertex -1.20208 11.437 15
    endloop
  endfacet
  facet normal 0.587785 0.809017 -0
    outer loop
      vertex 7.695 8.54617 15
      vertex 5.75 9.95929 40
      vertex 7.695 8.54617 40
    endloop
  endfacet
  facet normal 0.587785 0.809017 0
    outer loop
      vertex 5.75 9.95929 40
      vertex 7.695 8.54617 15
      vertex 5.75 9.95929 15
    endloop
  endfacet
  facet normal -0.994522 0.104529 0
    outer loop
      vertex -11.5 0 15
      vertex -11.2487 2.39098 40
      vertex -11.2487 2.39098 15
    endloop
  endfacet
  facet normal -0.994522 0.104529 0
    outer loop
      vertex -11.2487 2.39098 40
      vertex -11.5 0 15
      vertex -11.5 0 40
    endloop
  endfacet
  facet normal -0.743145 0.66913 0
    outer loop
      vertex -9.30369 6.75953 15
      vertex -7.695 8.54617 40
      vertex -7.695 8.54617 15
    endloop
  endfacet
  facet normal -0.743145 0.66913 0
    outer loop
      vertex -7.695 8.54617 40
      vertex -9.30369 6.75953 15
      vertex -9.30369 6.75953 40
    endloop
  endfacet
  facet normal -0.406737 0.913545 0
    outer loop
      vertex -3.55369 10.9371 15
      vertex -5.75 9.95929 40
      vertex -3.55369 10.9371 40
    endloop
  endfacet
  facet normal -0.406737 0.913545 0
    outer loop
      vertex -5.75 9.95929 40
      vertex -3.55369 10.9371 15
      vertex -5.75 9.95929 15
    endloop
  endfacet
  facet normal -0.587785 0.809017 0
    outer loop
      vertex -5.75 9.95929 15
      vertex -7.695 8.54617 40
      vertex -5.75 9.95929 40
    endloop
  endfacet
  facet normal -0.587785 0.809017 0
    outer loop
      vertex -7.695 8.54617 40
      vertex -5.75 9.95929 15
      vertex -7.695 8.54617 15
    endloop
  endfacet
  facet normal 0.994522 0.104529 0
    outer loop
      vertex 11.5 0 40
      vertex 11.2487 2.39098 15
      vertex 11.2487 2.39098 40
    endloop
  endfacet
  facet normal 0.994522 0.104529 0
    outer loop
      vertex 11.2487 2.39098 15
      vertex 11.5 0 40
      vertex 11.5 0 15
    endloop
  endfacet
  facet normal 0.587785 -0.809017 0
    outer loop
      vertex 5.75 -9.95929 15
      vertex 7.695 -8.54617 40
      vertex 5.75 -9.95929 40
    endloop
  endfacet
  facet normal 0.587785 -0.809017 0
    outer loop
      vertex 7.695 -8.54617 40
      vertex 5.75 -9.95929 15
      vertex 7.695 -8.54617 15
    endloop
  endfacet
  facet normal 0.951057 -0.309017 0
    outer loop
      vertex 10.5058 -4.67747 40
      vertex 11.2487 -2.39098 15
      vertex 11.2487 -2.39098 40
    endloop
  endfacet
  facet normal 0.951057 -0.309017 0
    outer loop
      vertex 11.2487 -2.39098 15
      vertex 10.5058 -4.67747 40
      vertex 10.5058 -4.67747 15
    endloop
  endfacet
  facet normal -0.587785 -0.809017 0
    outer loop
      vertex -7.695 -8.54617 15
      vertex -5.75 -9.95929 40
      vertex -7.695 -8.54617 40
    endloop
  endfacet
  facet normal -0.587785 -0.809017 -0
    outer loop
      vertex -5.75 -9.95929 40
      vertex -7.695 -8.54617 15
      vertex -5.75 -9.95929 15
    endloop
  endfacet
  facet normal -0.866025 -0.5 0
    outer loop
      vertex -9.30369 -6.75953 15
      vertex -10.5058 -4.67747 40
      vertex -10.5058 -4.67747 15
    endloop
  endfacet
  facet normal -0.866025 -0.5 0
    outer loop
      vertex -10.5058 -4.67747 40
      vertex -9.30369 -6.75953 15
      vertex -9.30369 -6.75953 40
    endloop
  endfacet
  facet normal 0.207912 0.978148 -0
    outer loop
      vertex 3.55369 10.9371 15
      vertex 1.20208 11.437 40
      vertex 3.55369 10.9371 40
    endloop
  endfacet
  facet normal 0.207912 0.978148 0
    outer loop
      vertex 1.20208 11.437 40
      vertex 3.55369 10.9371 15
      vertex 1.20208 11.437 15
    endloop
  endfacet
  facet normal 0 0 1
    outer loop
      vertex 5 5 40
      vertex 11.5 0 40
      vertex 11.2487 2.39098 40
    endloop
  endfacet
  facet normal 0 0 1
    outer loop
      vertex 5 5 40
      vertex 11.2487 2.39098 40
      vertex 10.5058 4.67747 40
    endloop
  endfacet
  facet normal 0 0 1
    outer loop
      vertex 5 -5 40
      vertex 11.5 0 40
      vertex 5 5 40
    endloop
  endfacet
  facet normal -0 0 1
    outer loop
      vertex 5 5 40
      vertex 10.5058 4.67747 40
      vertex 9.30369 6.75953 40
    endloop
  endfacet
  facet normal 0 0 1
    outer loop
      vertex 11.5 0 40
      vertex 5 -5 40
      vertex 11.2487 -2.39098 40
    endloop
  endfacet
  facet normal 0 0 1
    outer loop
      vertex 5 5 40
      vertex 9.30369 6.75953 40
      vertex 7.695 8.54617 40
    endloop
  endfacet
  facet normal 0 0 1
    outer loop
      vertex 11.2487 -2.39098 40
      vertex 5 -5 40
      vertex 10.5058 -4.67747 40
    endloop
  endfacet
  facet normal 0 0 1
    outer loop
      vertex 5 5 40
      vertex 7.695 8.54617 40
      vertex 5.75 9.95929 40
    endloop
  endfacet
  facet normal 0 0 1
    outer loop
      vertex 10.5058 -4.67747 40
      vertex 5 -5 40
      vertex 9.30369 -6.75953 40
    endloop
  endfacet
  facet normal 0 0 1
    outer loop
      vertex 9.30369 -6.75953 40
      vertex 5 -5 40
      vertex 7.695 -8.54617 40
    endloop
  endfacet
  facet normal 0 0 1
    outer loop
      vertex 3.55369 10.9371 40
      vertex 5 5 40
      vertex 5.75 9.95929 40
    endloop
  endfacet
  facet normal 0 0 1
    outer loop
      vertex 1.20208 11.437 40
      vertex 5 5 40
      vertex 3.55369 10.9371 40
    endloop
  endfacet
  facet normal -0 0 1
    outer loop
      vertex -1.20208 11.437 40
      vertex 5 5 40
      vertex 1.20208 11.437 40
    endloop
  endfacet
  facet normal 0 0 1
    outer loop
      vertex -5 5 40
      vertex -1.20208 11.437 40
      vertex -3.55369 10.9371 40
    endloop
  endfacet
  facet normal 0 0 1
    outer loop
      vertex -1.20208 11.437 40
      vertex -5 5 40
      vertex 5 5 40
    endloop
  endfacet
  facet normal -0 0 1
    outer loop
      vertex -7.695 8.54617 40
      vertex -5 5 40
      vertex -5.75 9.95929 40
    endloop
  endfacet
  facet normal -0 0 1
    outer loop
      vertex -5.75 9.95929 40
      vertex -5 5 40
      vertex -3.55369 10.9371 40
    endloop
  endfacet
  facet normal 0 0 1
    outer loop
      vertex 7.695 -8.54617 40
      vertex 5 -5 40
      vertex 5.75 -9.95929 40
    endloop
  endfacet
  facet normal 0 0 1
    outer loop
      vertex 5 -5 40
      vertex 3.55369 -10.9371 40
      vertex 5.75 -9.95929 40
    endloop
  endfacet
  facet normal 0 0 1
    outer loop
      vertex 5 -5 40
      vertex 1.20208 -11.437 40
      vertex 3.55369 -10.9371 40
    endloop
  endfacet
  facet normal 0 0 1
    outer loop
      vertex 5 -5 40
      vertex -1.20208 -11.437 40
      vertex 1.20208 -11.437 40
    endloop
  endfacet
  facet normal -0 0 1
    outer loop
      vertex -5 -5 40
      vertex -1.20208 -11.437 40
      vertex 5 -5 40
    endloop
  endfacet
  facet normal 0 0 1
    outer loop
      vertex -1.20208 -11.437 40
      vertex -5 -5 40
      vertex -3.55369 -10.9371 40
    endloop
  endfacet
  facet normal 0 0 1
    outer loop
      vertex -5 -5 40
      vertex -5.75 -9.95929 40
      vertex -3.55369 -10.9371 40
    endloop
  endfacet
  facet normal -0 0 1
    outer loop
      vertex -9.30369 6.75953 40
      vertex -5 5 40
      vertex -7.695 8.54617 40
    endloop
  endfacet
  facet normal 0 0 1
    outer loop
      vertex -10.5058 4.67747 40
      vertex -5 5 40
      vertex -9.30369 6.75953 40
    endloop
  endfacet
  facet normal 0 0 1
    outer loop
      vertex -5 -5 40
      vertex -7.695 -8.54617 40
      vertex -5.75 -9.95929 40
    endloop
  endfacet
  facet normal 0 0 1
    outer loop
      vertex -11.2487 2.39098 40
      vertex -5 5 40
      vertex -10.5058 4.67747 40
    endloop
  endfacet
  facet normal 0 0 1
    outer loop
      vertex -5 -5 40
      vertex -9.30369 -6.75953 40
      vertex -7.695 -8.54617 40
    endloop
  endfacet
  facet normal 0 0 1
    outer loop
      vertex -11.5 0 40
      vertex -5 5 40
      vertex -11.2487 2.39098 40
    endloop
  endfacet
  facet normal 0 0 1
    outer loop
      vertex -5 -5 40
      vertex -10.5058 -4.67747 40
      vertex -9.30369 -6.75953 40
    endloop
  endfacet
  facet normal 0 0 1
    outer loop
      vertex -5 5 40
      vertex -11.5 0 40
      vertex -5 -5 40
    endloop
  endfacet
  facet normal 0 0 1
    outer loop
      vertex -5 -5 40
      vertex -11.2487 -2.39098 40
      vertex -10.5058 -4.67747 40
    endloop
  endfacet
  facet normal 0 0 1
    outer loop
      vertex -5 -5 40
      vertex -11.5 0 40
      vertex -11.2487 -2.39098 40
    endloop
  endfacet
  facet normal -0.951057 0.309017 0
    outer loop
      vertex -11.2487 2.39098 15
      vertex -10.5058 4.67747 40
      vertex -10.5058 4.67747 15
    endloop
  endfacet
  facet normal -0.951057 0.309017 0
    outer loop
      vertex -10.5058 4.67747 40
      vertex -11.2487 2.39098 15
      vertex -11.2487 2.39098 40
    endloop
  endfacet
  facet normal 0 -1 0
    outer loop
      vertex -1.20208 -11.437 15
      vertex 1.20208 -11.437 40
      vertex -1.20208 -11.437 40
    endloop
  endfacet
  facet normal 0 -1 -0
    outer loop
      vertex 1.20208 -11.437 40
      vertex -1.20208 -11.437 15
      vertex 1.20208 -11.437 15
    endloop
  endfacet
  facet normal -0.743145 -0.66913 0
    outer loop
      vertex -7.695 -8.54617 15
      vertex -9.30369 -6.75953 40
      vertex -9.30369 -6.75953 15
    endloop
  endfacet
  facet normal -0.743145 -0.66913 0
    outer loop
      vertex -9.30369 -6.75953 40
      vertex -7.695 -8.54617 15
      vertex -7.695 -8.54617 40
    endloop
  endfacet
  facet normal 0.406736 -0.913546 0
    outer loop
      vertex 3.55369 -10.9371 15
      vertex 5.75 -9.95929 40
      vertex 3.55369 -10.9371 40
    endloop
  endfacet
  facet normal 0.406736 -0.913546 0
    outer loop
      vertex 5.75 -9.95929 40
      vertex 3.55369 -10.9371 15
      vertex 5.75 -9.95929 15
    endloop
  endfacet
  facet normal 0.743145 -0.66913 0
    outer loop
      vertex 7.695 -8.54617 40
      vertex 9.30369 -6.75953 15
      vertex 9.30369 -6.75953 40
    endloop
  endfacet
  facet normal 0.743145 -0.66913 0
    outer loop
      vertex 9.30369 -6.75953 15
      vertex 7.695 -8.54617 40
      vertex 7.695 -8.54617 15
    endloop
  endfacet
  facet normal 0.866025 -0.5 0
    outer loop
      vertex 9.30369 -6.75953 40
      vertex 10.5058 -4.67747 15
      vertex 10.5058 -4.67747 40
    endloop
  endfacet
  facet normal 0.866025 -0.5 0
    outer loop
      vertex 10.5058 -4.67747 15
      vertex 9.30369 -6.75953 40
      vertex 9.30369 -6.75953 15
    endloop
  endfacet
  facet normal -0.406736 -0.913546 0
    outer loop
      vertex -5.75 -9.95929 15
      vertex -3.55369 -10.9371 40
      vertex -5.75 -9.95929 40
    endloop
  endfacet
  facet normal -0.406736 -0.913546 -0
    outer loop
      vertex -3.55369 -10.9371 40
      vertex -5.75 -9.95929 15
      vertex -3.55369 -10.9371 15
    endloop
  endfacet
  facet normal -0.207912 -0.978148 0
    outer loop
      vertex -3.55369 -10.9371 15
      vertex -1.20208 -11.437 40
      vertex -3.55369 -10.9371 40
    endloop
  endfacet
  facet normal -0.207912 -0.978148 -0
    outer loop
      vertex -1.20208 -11.437 40
      vertex -3.55369 -10.9371 15
      vertex -1.20208 -11.437 15
    endloop
  endfacet
  facet normal -0.951057 -0.309017 0
    outer loop
      vertex -10.5058 -4.67747 15
      vertex -11.2487 -2.39098 40
      vertex -11.2487 -2.39098 15
    endloop
  endfacet
  facet normal -0.951057 -0.309017 0
    outer loop
      vertex -11.2487 -2.39098 40
      vertex -10.5058 -4.67747 15
      vertex -10.5058 -4.67747 40
    endloop
  endfacet
  facet normal -0.994522 -0.104529 0
    outer loop
      vertex -11.2487 -2.39098 15
      vertex -11.5 0 40
      vertex -11.5 0 15
    endloop
  endfacet
  facet normal -0.994522 -0.104529 0
    outer loop
      vertex -11.5 0 40
      vertex -11.2487 -2.39098 15
      vertex -11.2487 -2.39098 40
    endloop
  endfacet
  facet normal 0 1 -0
    outer loop
      vertex 27.6345 11.5 0
      vertex -27.6345 11.5 15
      vertex 27.6345 11.5 15
    endloop
  endfacet
  facet normal 0 1 0
    outer loop
      vertex -27.6345 11.5 15
      vertex 27.6345 11.5 0
      vertex -27.6345 11.5 0
    endloop
  endfacet
  facet normal 0 -1 0
    outer loop
      vertex -27.6345 -11.5 0
      vertex 27.6345 -11.5 15
      vertex -27.6345 -11.5 15
    endloop
  endfacet
  facet normal 0 -1 -0
    outer loop
      vertex 27.6345 -11.5 15
      vertex -27.6345 -11.5 0
      vertex 27.6345 -11.5 0
    endloop
  endfacet
  facet normal 1 -0 0
    outer loop
      vertex -5 -5 40
      vertex -5 5 28
      vertex -5 5 40
    endloop
  endfacet
  facet normal 1 0 0
    outer loop
      vertex -5 5 28
      vertex -5 -5 40
      vertex -5 -5 28
    endloop
  endfacet
  facet normal -1 0 0
    outer loop
      vertex 5 -5 28
      vertex 5 5 40
      vertex 5 5 28
    endloop
  endfacet
  facet normal -1 -0 0
    outer loop
      vertex 5 5 40
      vertex 5 -5 28
      vertex 5 -5 40
    endloop
  endfacet
  facet normal 0 -1 0
    outer loop
      vertex -5 5 28
      vertex 5 5 40
      vertex -5 5 40
    endloop
  endfacet
  facet normal 0 -1 -0
    outer loop
      vertex 5 5 40
      vertex -5 5 28
      vertex 5 5 28
    endloop
  endfacet
  facet normal -0 0 1
    outer loop
      vertex -5 5 28
      vertex 5 -5 28
      vertex 5 5 28
    endloop
  endfacet
  facet normal 0 0 1
    outer loop
      vertex 5 -5 28
      vertex -5 5 28
      vertex -5 -5 28
    endloop
  endfacet
  facet normal 0 1 -0
    outer loop
      vertex 5 -5 28
      vertex -5 -5 40
      vertex 5 -5 40
    endloop
  endfacet
  facet normal 0 1 0
    outer loop
      vertex -5 -5 40
      vertex 5 -5 28
      vertex -5 -5 28
    endloop
  endfacet
  facet normal -0.974928 -0.222521 0
    outer loop
      vertex 44.2 0 0
      vertex 43.7841 1.82231 15
      vertex 43.7841 1.82231 0
    endloop
  endfacet
  facet normal -0.974928 -0.222521 0
    outer loop
      vertex 43.7841 1.82231 15
      vertex 44.2 0 0
      vertex 44.2 0 15
    endloop
  endfacet
  facet normal 0.974928 -0.222521 0
    outer loop
      vertex 35.8 0 15
      vertex 36.2159 1.82231 0
      vertex 36.2159 1.82231 15
    endloop
  endfacet
  facet normal 0.974928 -0.222521 0
    outer loop
      vertex 36.2159 1.82231 0
      vertex 35.8 0 15
      vertex 35.8 0 0
    endloop
  endfacet
  facet normal 0 -1 0
    outer loop
      vertex 39.0654 4.0947 0
      vertex 40.9346 4.0947 15
      vertex 39.0654 4.0947 15
    endloop
  endfacet
  facet normal 0 -1 -0
    outer loop
      vertex 40.9346 4.0947 15
      vertex 39.0654 4.0947 0
      vertex 40.9346 4.0947 0
    endloop
  endfacet
  facet normal -0.433884 -0.900969 0
    outer loop
      vertex 40.9346 4.0947 0
      vertex 42.6187 3.28369 15
      vertex 40.9346 4.0947 15
    endloop
  endfacet
  facet normal -0.433884 -0.900969 -0
    outer loop
      vertex 42.6187 3.28369 15
      vertex 40.9346 4.0947 0
      vertex 42.6187 3.28369 0
    endloop
  endfacet
  facet normal -0.781831 -0.62349 0
    outer loop
      vertex 43.7841 1.82231 0
      vertex 42.6187 3.28369 15
      vertex 42.6187 3.28369 0
    endloop
  endfacet
  facet normal -0.781831 -0.62349 0
    outer loop
      vertex 42.6187 3.28369 15
      vertex 43.7841 1.82231 0
      vertex 43.7841 1.82231 15
    endloop
  endfacet
  facet normal 0.433884 -0.900969 0
    outer loop
      vertex 37.3813 3.28369 0
      vertex 39.0654 4.0947 15
      vertex 37.3813 3.28369 15
    endloop
  endfacet
  facet normal 0.433884 -0.900969 0
    outer loop
      vertex 39.0654 4.0947 15
      vertex 37.3813 3.28369 0
      vertex 39.0654 4.0947 0
    endloop
  endfacet
  facet normal 0.781832 -0.623489 0
    outer loop
      vertex 36.2159 1.82231 15
      vertex 37.3813 3.28369 0
      vertex 37.3813 3.28369 15
    endloop
  endfacet
  facet normal 0.781832 -0.623489 0
    outer loop
      vertex 37.3813 3.28369 0
      vertex 36.2159 1.82231 15
      vertex 36.2159 1.82231 0
    endloop
  endfacet
  facet normal 0.974928 0.222521 0
    outer loop
      vertex 36.2159 -1.82231 15
      vertex 35.8 0 0
      vertex 35.8 0 15
    endloop
  endfacet
  facet normal 0.974928 0.222521 0
    outer loop
      vertex 35.8 0 0
      vertex 36.2159 -1.82231 15
      vertex 36.2159 -1.82231 0
    endloop
  endfacet
  facet normal 0 1 -0
    outer loop
      vertex 40.9346 -4.0947 0
      vertex 39.0654 -4.0947 15
      vertex 40.9346 -4.0947 15
    endloop
  endfacet
  facet normal 0 1 0
    outer loop
      vertex 39.0654 -4.0947 15
      vertex 40.9346 -4.0947 0
      vertex 39.0654 -4.0947 0
    endloop
  endfacet
  facet normal 0.781832 0.623489 0
    outer loop
      vertex 37.3813 -3.28369 15
      vertex 36.2159 -1.82231 0
      vertex 36.2159 -1.82231 15
    endloop
  endfacet
  facet normal 0.781832 0.623489 0
    outer loop
      vertex 36.2159 -1.82231 0
      vertex 37.3813 -3.28369 15
      vertex 37.3813 -3.28369 0
    endloop
  endfacet
  facet normal -0.433884 0.900969 0
    outer loop
      vertex 42.6187 -3.28369 0
      vertex 40.9346 -4.0947 15
      vertex 42.6187 -3.28369 15
    endloop
  endfacet
  facet normal -0.433884 0.900969 0
    outer loop
      vertex 40.9346 -4.0947 15
      vertex 42.6187 -3.28369 0
      vertex 40.9346 -4.0947 0
    endloop
  endfacet
  facet normal -0.781831 0.62349 0
    outer loop
      vertex 42.6187 -3.28369 0
      vertex 43.7841 -1.82231 15
      vertex 43.7841 -1.82231 0
    endloop
  endfacet
  facet normal -0.781831 0.62349 0
    outer loop
      vertex 43.7841 -1.82231 15
      vertex 42.6187 -3.28369 0
      vertex 42.6187 -3.28369 15
    endloop
  endfacet
  facet normal -0.974928 0.222521 0
    outer loop
      vertex 43.7841 -1.82231 0
      vertex 44.2 0 15
      vertex 44.2 0 0
    endloop
  endfacet
  facet normal -0.974928 0.222521 0
    outer loop
      vertex 44.2 0 15
      vertex 43.7841 -1.82231 0
      vertex 43.7841 -1.82231 15
    endloop
  endfacet
  facet normal 0.433884 0.900969 -0
    outer loop
      vertex 39.0654 -4.0947 0
      vertex 37.3813 -3.28369 15
      vertex 39.0654 -4.0947 15
    endloop
  endfacet
  facet normal 0.433884 0.900969 0
    outer loop
      vertex 37.3813 -3.28369 15
      vertex 39.0654 -4.0947 0
      vertex 37.3813 -3.28369 0
    endloop
  endfacet
endsolid OpenSCAD_Model
